<svg width="189" height="60" viewBox="0 0 189 60" fill="none" xmlns="http://www.w3.org/2000/svg">
<path fill-rule="evenodd" clip-rule="evenodd" d="M21.3239 41.6974L24.3597 30.2875L42.6331 35.1419L39.5973 46.5518L21.3239 41.6974ZM4.25305 28.8063L0 17.7924L17.6281 10.9875L21.8812 22.0014L4.25305 28.8063ZM39.0254 11.3688L28.7594 27.2371L38.6734 33.646L48.9393 17.7777L39.0254 11.3688ZM36.4002 14.6686L24.477 0.00292969L15.311 7.45309L27.2342 22.1188L36.4002 14.6686ZM8.31544 27.6917L9.34203 46.5664L21.1332 45.9212L20.1066 27.0464L8.31544 27.6917Z" fill="#2C2E35"/>
<path fill-rule="evenodd" clip-rule="evenodd" d="M59.0147 12.4981H72.815C75.5575 12.4981 77.5814 12.6154 78.9306 12.8354C80.2799 13.0701 81.4825 13.5394 82.5384 14.258C83.5943 14.9766 84.4889 15.9299 85.1929 17.1325C85.8968 18.335 86.2488 19.6843 86.2488 21.1655C86.2488 22.7787 85.8088 24.26 84.9436 25.5946C84.0783 26.9438 82.8904 27.9411 81.4091 28.6157C83.5063 29.2316 85.1049 30.2729 86.2488 31.7541C87.3781 33.2354 87.9354 34.9659 87.9354 36.9605C87.9354 38.5297 87.5687 40.0549 86.8501 41.5508C86.1168 43.032 85.1195 44.22 83.8583 45.1146C82.5971 45.9945 81.0425 46.5371 79.1799 46.7571C78.0214 46.8744 75.2202 46.9624 70.7765 46.9918H59.0293V12.4981H59.0147ZM66.0102 18.2324V26.1812H70.5712C73.2843 26.1812 74.9709 26.1372 75.6162 26.0639C76.8041 25.9319 77.7427 25.5212 78.432 24.8319C79.1213 24.1427 79.4586 23.2627 79.4586 22.1481C79.4586 21.0775 79.1653 20.2269 78.5787 19.5523C77.992 18.8923 77.1121 18.4817 75.9535 18.3497C75.2642 18.2764 73.2844 18.2324 70.0139 18.2324H66.0102ZM66.0102 31.9301V41.1842H72.4631C74.9709 41.1842 76.5695 41.1108 77.2441 40.9788C78.2853 40.7882 79.1213 40.3336 79.7812 39.6003C80.4265 38.867 80.7638 37.8844 80.7638 36.6671C80.7638 35.6259 80.5145 34.7459 80.0159 34.0273C79.5173 33.3087 78.784 32.7807 77.8454 32.4434C76.8921 32.1208 74.8389 31.9448 71.6565 31.9448H66.0102V31.9301ZM93.9629 12.4981H119.745V18.335H100.958V26.3425H110.271C112.838 26.3425 114.964 26.6505 116.651 27.2811C118.352 27.9117 119.789 29.0703 120.992 30.7569C122.194 32.4434 122.796 34.4233 122.796 36.6965C122.796 39.0283 122.194 41.0228 120.977 42.6947C119.775 44.352 118.396 45.4959 116.841 46.0972C115.301 46.7131 113.102 47.0064 110.242 47.0064H93.9629V12.4981ZM100.958 41.1695H107.734C109.89 41.1695 111.415 41.0668 112.295 40.8615C113.175 40.6562 113.938 40.1722 114.598 39.4243C115.243 38.691 115.565 37.7671 115.565 36.6818C115.565 35.0979 114.994 33.954 113.864 33.2354C112.72 32.5168 110.784 32.1648 108.042 32.1648H100.958V41.1695ZM128.471 47.0064V12.4981H139.647C143.885 12.4981 146.627 12.6741 147.918 13.0114C149.898 13.5394 151.555 14.654 152.875 16.3992C154.21 18.1297 154.869 20.3736 154.869 23.1161C154.869 25.2426 154.488 27.0171 153.726 28.4544C152.948 29.9063 151.98 31.0355 150.807 31.8568C149.619 32.6781 148.417 33.2207 147.199 33.4847C145.542 33.8073 143.137 33.9833 139.984 33.9833H135.452V46.9918H128.471V47.0064ZM135.452 18.335V28.1611H139.251C141.993 28.1611 143.812 27.9704 144.736 27.6184C145.659 27.2518 146.378 26.6945 146.906 25.9172C147.434 25.1399 147.698 24.26 147.698 23.2334C147.698 21.9721 147.331 20.9309 146.598 20.1096C145.865 19.2883 144.941 18.775 143.797 18.5697C142.976 18.423 141.304 18.335 138.796 18.335H135.452ZM160.618 47.0064V12.4981H171.794C176.032 12.4981 178.775 12.6741 180.065 13.0114C182.045 13.5394 183.702 14.654 185.022 16.3992C186.357 18.1297 187.017 20.3736 187.017 23.1161C187.017 25.2426 186.635 27.0171 185.873 28.4544C185.095 29.9063 184.127 31.0355 182.954 31.8568C181.766 32.6781 180.564 33.2207 179.346 33.4847C177.689 33.8073 175.284 33.9833 172.131 33.9833H167.599V46.9918H160.618V47.0064ZM167.599 18.335V28.1611H171.398C174.14 28.1611 175.959 27.9704 176.883 27.6184C177.807 27.2518 178.525 26.6945 179.053 25.9172C179.581 25.1399 179.845 24.26 179.845 23.2334C179.845 21.9721 179.478 20.9309 178.745 20.1096C178.012 19.2883 177.088 18.775 175.944 18.5697C175.123 18.423 173.451 18.335 170.943 18.335H167.599Z" fill="#2C2E35"/>
<path d="M188.41 55.0726H8.09548V59.003H188.41V55.0726Z" fill="#fc0"/>
</svg>
