<svg width="81" height="51" viewBox="0 0 81 51" fill="none" xmlns="http://www.w3.org/2000/svg">
<path d="M16.0285 0.165344H35.9934C38.7805 0.165344 40.5156 2.43587 39.8653 5.23201L30.5686 45.1071C29.9118 47.8948 27.1228 50.1653 24.3347 50.1653H4.36893C1.58087 50.1653 -0.152321 47.8948 0.497977 45.1071L9.79929 5.23201C10.4477 2.43587 13.2348 0.165344 16.0285 0.165344Z" fill="#ED171F"/>
<path d="M34.3447 0.165344H57.306C60.0922 0.165344 58.8355 2.43587 58.1805 5.23201L48.8848 45.1071C48.2355 47.8948 48.4392 50.1653 45.6455 50.1653H22.686C19.8952 50.1653 18.1667 47.8948 18.8226 45.1071L28.1145 5.23201C28.7714 2.43587 31.5576 0.165344 34.3447 0.165344Z" fill="#082F67"/>
<path d="M56.3967 0.165344H76.3588C79.1478 0.165344 80.881 2.43587 80.2279 5.23201L70.9331 45.1071C70.28 47.8948 67.4919 50.1653 64.6945 50.1653H44.7381C41.9444 50.1653 40.214 47.8948 40.869 45.1071L50.1609 5.23201C50.815 2.43587 53.6021 0.165344 56.3967 0.165344Z" fill="#006A65"/>
<path fill-rule="evenodd" clip-rule="evenodd" d="M59.6272 29.6102L57.1942 37.655H57.8483L57.3428 39.3187H56.6887L56.5364 39.835H54.2212L54.3781 39.3187H49.6719L50.1446 37.7792H50.6202L53.0887 29.6102L53.5821 27.9596H55.9441L55.6974 28.7942C55.6974 28.7942 56.3262 28.3405 56.9233 28.1855C57.5203 28.0286 60.9437 27.9717 60.9437 27.9717L60.4364 29.6102H59.6272ZM55.4648 29.6102L54.8397 31.666C54.8397 31.666 55.5386 31.3513 55.9226 31.2458C56.3094 31.1459 56.8906 31.1067 56.8906 31.1067L57.3428 29.6102H55.4648ZM54.5295 32.6883L53.8829 34.8262C53.8829 34.8262 54.5977 34.4602 54.9817 34.3463C55.3685 34.2567 55.9534 34.1839 55.9534 34.1839L56.4122 32.6883H54.5295ZM53.0233 37.6784H54.906L55.4498 35.8709H53.5671L53.0233 37.6784Z" fill="white"/>
<path d="M60.7139 27.9715H63.2347L63.2627 28.9107C63.2478 29.0685 63.3842 29.1432 63.6757 29.1432H64.1877L63.7196 30.693H62.3592C61.1782 30.7798 60.7326 30.2728 60.7587 29.7043L60.7139 27.9715Z" fill="white"/>
<path d="M61.0039 35.3248H58.6008L59.0137 33.9431H61.7598L62.1531 32.6837H59.4398L59.906 31.1274H67.4545L66.9818 32.6837H64.4507L64.0545 33.9431H66.5912L66.1736 35.3248H63.4266L62.9408 35.9065H64.0545L64.3245 37.6458C64.3535 37.8166 64.3591 37.9296 64.4133 38.0043C64.4693 38.0687 64.8029 38.0986 64.9963 38.0986H65.3345L64.8207 39.7912H63.9639C63.8312 39.7912 63.635 39.78 63.3668 39.766C63.1071 39.7436 62.923 39.5933 62.7511 39.5111C62.5941 39.4327 62.3587 39.2422 62.3045 38.9183L62.0354 37.1827L60.789 38.8949C60.3919 39.4327 59.8556 39.8444 58.9511 39.8444H57.2002L57.659 38.3348H58.327C58.5204 38.3348 58.6914 38.2592 58.8166 38.1938C58.9455 38.1397 59.0586 38.0752 59.1875 37.8848L61.0039 35.3248Z" fill="white"/>
<path d="M34.6916 31.547H41.0545L40.5845 33.065H38.0394L37.6441 34.3562H40.2472L39.7726 35.9237H37.1714L36.5407 38.0271C36.4631 38.2605 37.1555 38.2932 37.4059 38.2932L38.7102 38.113L38.1879 39.8458H35.2522C35.0215 39.8458 34.8411 39.8131 34.5851 39.7552C34.3375 39.6936 34.2282 39.5834 34.1189 39.4154C34.0124 39.2427 33.8498 39.1026 33.9601 38.7366L34.8019 35.9508H33.3574L33.8367 34.3562H35.2896L35.6755 33.065H34.2282L34.6916 31.547Z" fill="white"/>
<path d="M39.0099 28.8198H41.6195L41.142 30.4069H37.5766L37.1889 30.7402C37.0244 30.9018 36.9665 30.8336 36.7507 30.9503C36.5498 31.053 36.1247 31.2537 35.5762 31.2537H34.4316L34.8969 29.7273H35.2398C35.5304 29.7273 35.7276 29.703 35.8275 29.6386C35.9415 29.5676 36.0677 29.4061 36.2143 29.1428L36.8684 27.9525H39.4649L39.0099 28.8198Z" fill="white"/>
<path fill-rule="evenodd" clip-rule="evenodd" d="M42.7282 27.9709H44.9519L44.6286 29.0884C44.6286 29.0884 45.3293 28.5292 45.8217 28.3294C46.3113 28.1455 47.4204 27.9812 47.4204 27.9812L51.0176 27.9625L49.7917 32.0414C49.5862 32.7416 49.3461 33.1935 49.1956 33.3989C49.0583 33.6099 48.8994 33.7863 48.5846 33.9572C48.2818 34.1187 48.0062 34.212 47.7521 34.2382C47.5138 34.2559 47.1494 34.2653 46.643 34.2699H43.1794L42.2012 37.4983C42.1087 37.8167 42.0638 37.9679 42.1246 38.0538C42.176 38.1322 42.2937 38.2191 42.4563 38.2191L43.9839 38.0753L43.4635 39.8445H41.7499C41.2061 39.8445 40.81 39.8332 40.5315 39.8118C40.2681 39.7912 39.9924 39.8118 39.8102 39.6689C39.6486 39.5289 39.4066 39.3459 39.4122 39.1564C39.43 38.9809 39.501 38.6896 39.614 38.2919L42.7282 27.9709ZM47.4494 32.0928H43.8036L43.5812 32.8284H46.7355C47.1083 32.7818 47.1849 32.835 47.2148 32.8172L47.4494 32.0928ZM44.0063 31.429C44.0063 31.429 44.7174 30.7792 45.9367 30.5682C46.2142 30.514 47.9483 30.5318 47.9483 30.5318L48.2108 29.6598H44.537L44.0063 31.429Z" fill="white"/>
<path d="M49.2128 34.5562L49.0092 35.5365C48.9185 35.8408 48.8428 36.0751 48.6111 36.2712C48.371 36.4757 48.0832 36.6913 47.4152 36.6913L46.1837 36.7408L46.1734 37.8509C46.1566 38.1664 46.2417 38.1328 46.2921 38.1841C46.3491 38.2374 46.3986 38.2626 46.4556 38.2803L46.8434 38.2626L48.0225 38.1935L47.5366 39.8123H46.1837C45.2354 39.8123 44.5328 39.7918 44.301 39.607C44.0749 39.4641 44.045 39.2811 44.0516 38.9721L44.1366 34.6542H46.294L46.2669 35.5365H46.7873C46.9648 35.5365 47.0816 35.5178 47.1582 35.472C47.2208 35.4207 47.2704 35.3535 47.3049 35.2442L47.5152 34.5562H49.2128Z" fill="white"/>
<path d="M18.3971 12.9047C18.3186 13.252 16.9348 19.6416 16.9292 19.6453C16.6293 20.9365 16.4172 21.8626 15.6791 22.4536C15.2605 22.7971 14.7709 22.9661 14.2056 22.9661C13.2975 22.9661 12.764 22.5152 12.6733 21.6572L12.6565 21.3641C12.6565 21.3641 12.9331 19.6304 12.9368 19.6238C12.9368 19.6238 14.3897 13.8 14.6504 13.0335C14.6616 12.9906 14.6672 12.9691 14.6728 12.9467C11.8418 12.9719 11.3382 12.9467 11.3055 12.9047C11.2896 12.9616 11.2139 13.3239 11.2139 13.3239L9.72831 19.8815L9.59937 20.4417L9.35645 22.2603C9.35645 22.7971 9.46296 23.2397 9.67318 23.6122C10.3506 24.796 12.2818 24.9715 13.3713 24.9715C14.7793 24.9715 16.0958 24.6709 16.9872 24.1294C18.5335 23.2145 18.9408 21.7823 19.3024 20.5163L19.4687 19.8675C19.4687 19.8675 20.9684 13.8205 21.2244 13.0335C21.2318 12.9906 21.2365 12.9691 21.2468 12.9467C19.1959 12.9691 18.5923 12.9467 18.3971 12.9047Z" fill="white"/>
<path d="M26.6874 24.9061C25.682 24.8921 25.3298 24.8921 24.1553 24.9518L24.1095 24.865C24.2132 24.4187 24.3244 23.979 24.4235 23.5262L24.5674 22.9166C24.7851 21.9652 24.9981 20.8598 25.0233 20.5265C25.0439 20.323 25.1111 19.817 24.5328 19.817C24.288 19.817 24.0338 19.9365 23.7778 20.0532C23.6358 20.5592 23.349 21.9764 23.2172 22.6253C22.9248 23.9883 22.9061 24.1424 22.7762 24.8174L22.6921 24.9061C21.656 24.8921 21.2981 24.8921 20.1068 24.9518L20.0508 24.8529C20.2507 24.0425 20.4488 23.2256 20.6394 22.4171C21.1383 20.2222 21.2561 19.381 21.3953 18.2654L21.4887 18.1991C22.6501 18.0366 22.9313 18.0049 24.188 17.7463L24.2945 17.8648L24.1049 18.5641C24.317 18.439 24.5178 18.3111 24.7374 18.1991C25.3298 17.9078 25.9894 17.8219 26.3529 17.8219C26.9013 17.8219 27.503 17.9759 27.7553 18.6117C27.9945 19.1784 27.8366 19.8786 27.5227 21.2548L27.3601 21.954C27.0377 23.4861 26.9854 23.7661 26.8051 24.8174L26.6874 24.9061Z" fill="white"/>
<path d="M30.7369 24.906C30.1333 24.9032 29.7447 24.892 29.3635 24.9032C28.986 24.906 28.6169 24.9256 28.0554 24.9518L28.0217 24.9032L27.9844 24.8528C28.1376 24.2721 28.2245 24.0686 28.2992 23.8623C28.3759 23.6578 28.4506 23.4506 28.5833 22.8614C28.7589 22.094 28.8673 21.5563 28.9449 21.0867C29.0252 20.6301 29.071 20.2436 29.128 19.7946L29.1747 19.7591L29.2252 19.7161C29.8259 19.6312 30.21 19.5752 30.5986 19.5154C30.9929 19.4585 31.39 19.381 32.0132 19.2634L32.0375 19.3175L32.0543 19.3726C31.9385 19.8478 31.8208 20.323 31.7077 20.8066C31.5965 21.2874 31.4788 21.7598 31.3741 22.2387C31.1462 23.2498 31.0574 23.6251 31.0032 23.8949C30.9537 24.1526 30.9369 24.2927 30.8472 24.8173L30.793 24.865L30.7369 24.906Z" fill="white"/>
<path d="M39.7679 21.4538C40.1202 19.9106 39.8501 19.1889 39.5054 18.7473C38.9793 18.0807 38.0581 17.865 37.0985 17.865C36.5239 17.865 35.1514 17.9238 34.0778 18.9135C33.3117 19.6239 32.952 20.593 32.7361 21.5182C32.5203 22.4602 32.2708 24.165 33.8358 24.797C34.3217 25.0006 35.0131 25.0584 35.4634 25.0584C36.6099 25.0584 37.7853 24.7419 38.6654 23.8065C39.3521 23.0456 39.6614 21.9159 39.7679 21.4538M37.1434 21.3418C37.0883 21.6004 36.8621 22.5695 36.551 22.9812C36.3361 23.2837 36.081 23.4657 35.7989 23.4657C35.7195 23.4657 35.2233 23.4657 35.214 22.73C35.2084 22.3678 35.2841 21.9906 35.3747 21.5892C35.6391 20.4203 35.9512 19.44 36.7463 19.44C37.3723 19.44 37.4134 20.1692 37.1434 21.3418" fill="white"/>
<path d="M64.3482 25.01C63.1373 24.9988 62.7888 24.9988 61.6694 25.0464L61.5938 24.9559C61.9002 23.8048 62.2067 22.6574 62.4767 21.4941C62.8271 19.9845 62.9074 19.3431 63.0252 18.4599L63.1158 18.3852C64.3173 18.2125 64.6518 18.1649 65.9057 17.9333L65.9449 18.036C65.7151 18.9827 65.4853 19.9303 65.2666 20.8807C64.8041 22.8721 64.6359 23.8841 64.4584 24.9241L64.3482 25.01Z" fill="white"/>
<path d="M64.8773 21.5897C65.2295 20.054 63.8131 21.4544 63.5861 20.9474C63.2385 20.1576 63.4562 18.5546 62.0603 18.0196C61.5249 17.8114 60.2636 18.0813 59.1872 19.0643C58.4257 19.772 58.0632 20.729 57.8492 21.6532C57.6325 22.5822 57.3839 24.2832 58.9405 24.8938C59.432 25.102 59.8833 25.1617 60.3318 25.144C61.8977 25.059 63.0918 22.6989 63.9729 21.7625C64.654 21.023 64.7736 22.0407 64.8773 21.5897ZM62.4817 21.4749C62.4228 21.7214 62.1958 22.7017 61.8846 23.1068C61.6791 23.3972 61.1895 23.5811 60.9092 23.5811C60.8298 23.5811 60.3374 23.5811 60.3196 22.852C60.3159 22.4935 60.3916 22.1163 60.485 21.7111C60.7494 20.5674 61.0615 19.5909 61.8566 19.5909C62.4835 19.5909 62.7508 20.3023 62.4817 21.4749" fill="white"/>
<path d="M46.6234 24.9061C45.6162 24.8921 45.2752 24.8921 44.0914 24.9518L44.0493 24.865C44.1493 24.4187 44.2633 23.979 44.3679 23.5262L44.509 22.9166C44.7277 21.9652 44.9398 20.8598 44.964 20.5265C44.9837 20.323 45.0509 19.817 44.4773 19.817C44.2287 19.817 43.9774 19.9365 43.7195 20.0532C43.5794 20.5592 43.2916 21.9764 43.1533 22.6253C42.8665 23.9883 42.8468 24.1424 42.717 24.8174L42.631 24.9061C41.5958 24.8921 41.2407 24.8921 40.0522 24.9518L39.998 24.8529C40.1961 24.0425 40.3905 23.2256 40.5811 22.4171C41.0791 20.2222 41.1977 19.381 41.336 18.2654L41.4295 18.1991C42.5908 18.0366 42.873 18.0049 44.1297 17.7463L44.2287 17.8648L44.0465 18.5641C44.253 18.439 44.4632 18.3111 44.6772 18.1991C45.2658 17.9078 45.9311 17.8219 46.2871 17.8219C46.8374 17.8219 47.44 17.9759 47.6989 18.6117C47.9352 19.1784 47.7755 19.8786 47.4587 21.2548L47.3008 21.954C46.9719 23.4861 46.9215 23.7661 46.7477 24.8174L46.6234 24.9061Z" fill="white"/>
<path d="M56.4322 16.6426C56.2547 17.438 55.738 18.113 55.07 18.4388C54.5178 18.7161 53.846 18.7367 53.1508 18.7367H52.7033L52.7369 18.5583C52.7369 18.5583 53.5657 14.963 53.5619 14.9742L53.5862 14.7903L53.6012 14.6484L53.9319 14.683C53.9319 14.683 55.6343 14.8305 55.6773 14.8351C56.3509 15.0909 56.6256 15.7669 56.4322 16.6426ZM55.3446 12.8932C55.34 12.8932 54.5103 12.9045 54.5103 12.9045C52.3398 12.9287 51.47 12.9185 51.113 12.8755C51.0757 13.0342 51.0215 13.3162 51.0215 13.3162L50.246 16.9217C50.246 16.9217 48.3876 24.5801 48.2988 24.9395C50.1927 24.919 50.9701 24.919 51.2943 24.9517C51.3681 24.5922 51.811 22.4533 51.811 22.4533C51.811 22.4533 52.1894 20.8821 52.2118 20.8242C52.2118 20.8242 52.3286 20.6636 52.4491 20.5992H52.622C54.2543 20.5992 56.1024 20.5992 57.5469 19.534C58.5289 18.8048 59.2063 17.7284 59.5043 16.4223C59.5847 16.1011 59.6407 15.7165 59.6407 15.3356C59.6407 14.8351 59.5398 14.3394 59.2464 13.951C58.5102 12.9185 57.0451 12.9045 55.3446 12.8932Z" fill="white"/>
<path d="M74.2784 17.923L74.1822 17.8157C72.9452 18.0631 72.719 18.106 71.5792 18.2563L71.4932 18.3385C71.4895 18.3525 71.4857 18.3749 71.4829 18.3926L71.4773 18.3749C70.6289 20.3345 70.656 19.9107 69.9637 21.4492C69.959 21.3764 69.9581 21.3307 69.9562 21.2579L69.7843 17.923L69.675 17.8157C68.38 18.0631 68.3454 18.106 67.1467 18.2563L67.0504 18.3385C67.042 18.3824 67.0392 18.4253 67.0327 18.472L67.042 18.4897C67.1915 19.2581 67.1569 19.0854 67.3055 20.2906C67.3756 20.8825 67.4671 21.4819 67.5372 22.0654C67.6568 23.0457 67.7222 23.5302 67.8642 25.0221C67.0579 26.3609 66.8626 26.866 66.0918 28.0405L66.1329 28.1469C67.3055 28.103 67.5755 28.103 68.4426 28.103L68.6341 27.8892C69.2891 26.4786 74.2784 17.923 74.2784 17.923Z" fill="white"/>
<path d="M31.8568 18.7516C32.5183 18.2894 32.6033 17.6508 32.0427 17.3194C31.4746 16.9861 30.4861 17.0907 29.8171 17.5537C29.1435 18.0093 29.0697 18.6498 29.6312 18.984C30.1937 19.3099 31.1869 19.2146 31.8568 18.7516Z" fill="white"/>
<path d="M68.5098 28.0062L67.5344 29.6746C67.226 30.2441 66.6533 30.6726 65.7433 30.6754L64.1895 30.6502L64.6417 29.1462H64.9425C65.1023 29.1462 65.2191 29.1359 65.3088 29.092C65.3854 29.0678 65.4424 29.0071 65.5059 28.9174L66.0787 28.0062H68.5098Z" fill="white"/>
</svg>
