<svg xmlns="http://www.w3.org/2000/svg" width="225.8" height="68.4" viewBox="0 0 225.8 68.4"><path fill="#02797E" d="M110.7 31c.6.4 1.5.7 2.4.7 1.4 0 2.2-.7 2.2-1.8 0-1-.6-1.5-2-2.1-1.7-.6-2.8-1.5-2.8-3 0-1.6 1.4-2.8 3.4-2.8 1.1 0 1.8.2 2.3.5l-.4 1.1c-.3-.2-1-.5-2-.5-1.4 0-2 .9-2 1.6 0 1 .6 1.5 2.1 2 1.8.7 2.6 1.5 2.6 3.1s-1.2 3-3.6 3c-1 0-2.1-.3-2.7-.7l.5-1.1M119.3 29.1c0 1.8 1.2 2.6 2.6 2.6 1 0 1.6-.2 2.1-.4l.2 1c-.5.2-1.3.5-2.5.5-2.3 0-3.7-1.5-3.7-3.8s1.4-4.1 3.5-4.1c2.4 0 3.1 2.2 3.1 3.5v.7h-5.3m4-.9c0-.9-.4-2.2-1.9-2.2-1.4 0-2 1.3-2.1 2.2h4zM131.7 32.4c-.4.2-1.2.4-2.2.4-2.3 0-3.7-1.5-3.7-3.8s1.6-4 4-4c.8 0 1.5.2 1.9.4l-.3 1c-.3-.2-.8-.4-1.6-.4-1.7 0-2.7 1.3-2.7 2.9 0 1.7 1.1 2.8 2.6 2.8.8 0 1.3-.2 1.7-.4l.3 1.1M139.5 30.6c0 .8 0 1.5.1 2h-1.2l-.1-1.2c-.3.6-1.2 1.4-2.5 1.4-1.2 0-2.6-.7-2.6-3.3v-4.4h1.4v4.1c0 1.4.5 2.4 1.7 2.4.9 0 1.6-.6 1.8-1.3.1-.2.1-.4.1-.7V25h1.4v5.6M141.8 27.5c0-.9 0-1.6-.1-2.3h1.2l.1 1.5c.3-1 1.2-1.6 2.1-1.6h.4v1.3h-.5c-1 0-1.6.7-1.8 1.7v4.7h-1.4v-5.3M147.6 23.8c-.5 0-.9-.4-.9-.9s.4-.9.9-.9.9.4.9.9-.3.9-.9.9m.7 8.9H147v-7.5h1.4v7.5zM152.2 23.4v1.8h2v1h-2v4.1c0 .9.3 1.5 1 1.5.4 0 .6 0 .8-.1l.1 1c-.3.1-.7.2-1.2.2-.6 0-1.1-.2-1.5-.6-.4-.4-.5-1.1-.5-2v-4.1h-1.2v-1h1.2v-1.4l1.3-.4M156.4 25.2l1.6 4.4c.2.5.4 1.1.5 1.5.1-.4.3-1 .5-1.6l1.5-4.4h1.4l-2.1 5.4c-1 2.6-1.6 3.9-2.6 4.7-.7.6-1.3.8-1.7.9l-.3-1.1c.3-.1.8-.3 1.2-.7.4-.3.8-.8 1.1-1.5.1-.1.1-.2.1-.3 0-.1 0-.2-.1-.3l-2.8-6.9h1.7M110.7 46.5c.6.4 1.5.7 2.4.7 1.4 0 2.2-.7 2.2-1.8 0-1-.6-1.5-2-2.1-1.7-.6-2.8-1.5-2.8-3 0-1.6 1.4-2.8 3.4-2.8 1.1 0 1.8.2 2.3.5l-.4 1.1c-.3-.2-1-.5-2-.5-1.4 0-2 .9-2 1.6 0 1 .6 1.5 2.1 2 1.8.7 2.6 1.5 2.6 3.1s-1.2 3-3.6 3c-1 0-2.1-.3-2.7-.7l.5-1.1M120 38.9v1.8h2v1h-2v4c0 .9.3 1.5 1 1.5.4 0 .6 0 .8-.1l.1 1c-.3.1-.7.2-1.2.2-.6 0-1.1-.2-1.5-.6-.4-.4-.5-1.1-.5-2v-4.1h-1.2v-1h1.2v-1.4l1.3-.3M128.8 46.4c0 .7 0 1.3.1 1.8h-1.2l-.1-.9c-.4.6-1.2 1.1-2.3 1.1-1.5 0-2.3-1.1-2.3-2.2 0-1.8 1.6-2.8 4.5-2.8v-.2c0-.6-.2-1.8-1.7-1.7-.7 0-1.4.2-2 .6l-.3-.9c.6-.4 1.5-.6 2.5-.6 2.3 0 2.9 1.6 2.9 3.1v2.7m-1.4-2c-1.5 0-3.2.2-3.2 1.7 0 .9.6 1.3 1.3 1.3 1 0 1.6-.6 1.8-1.3 0-.1.1-.3.1-.4v-1.3zM131 42.7c0-.8 0-1.4-.1-2h1.2l.1 1.2c.4-.7 1.2-1.4 2.5-1.4 1 0 2.7.6 2.7 3.2v4.5H136v-4.3c0-1.2-.5-2.2-1.7-2.2-.9 0-1.6.6-1.8 1.4-.1.2-.1.4-.1.6v4.5H131v-5.5M146.1 37.2v9.1c0 .7 0 1.4.1 1.9H145l-.1-1.3c-.4.8-1.3 1.5-2.5 1.5-1.8 0-3.2-1.5-3.2-3.8 0-2.5 1.6-4 3.4-4 1.2 0 1.9.5 2.3 1.1v-4.5h1.2m-1.4 6.5c0-.2 0-.4-.1-.6-.2-.9-.9-1.6-2-1.6-1.4 0-2.3 1.2-2.3 2.9 0 1.5.8 2.8 2.2 2.8.9 0 1.7-.6 2-1.6.1-.2.1-.4.1-.6v-1.3zM153.7 46.4c0 .7 0 1.3.1 1.8h-1.2l-.1-.9c-.4.6-1.2 1.1-2.3 1.1-1.5 0-2.3-1.1-2.3-2.2 0-1.8 1.6-2.8 4.5-2.8v-.2c0-.6-.2-1.8-1.7-1.7-.7 0-1.4.2-2 .6l-.3-.9c.6-.4 1.5-.6 2.5-.6 2.3 0 2.9 1.6 2.9 3.1v2.7m-1.5-2c-1.5 0-3.2.2-3.2 1.7 0 .9.6 1.3 1.3 1.3 1 0 1.6-.6 1.8-1.3 0-.1.1-.3.1-.4v-1.3zM155.9 43c0-.9 0-1.6-.1-2.3h1.2l.1 1.5h.1c.3-1 1.2-1.6 2.1-1.6h.4v1.3h-.5c-1 0-1.6.7-1.8 1.7v4.7H156l-.1-5.3M167.3 37.2v9.1c0 .7 0 1.4.1 1.9h-1.2l-.1-1.3c-.4.8-1.3 1.5-2.6 1.5-1.8 0-3.2-1.5-3.2-3.8 0-2.5 1.5-4 3.4-4 1.2 0 1.9.5 2.3 1.1v-4.5h1.3m-1.3 6.5c0-.2 0-.4-.1-.6-.2-.9-1-1.6-2-1.6-1.4 0-2.2 1.2-2.2 2.9 0 1.5.8 2.8 2.2 2.8.9 0 1.8-.6 2-1.6 0-.2.1-.4.1-.6v-1.3zM169.4 46.8c.4.3 1.1.5 1.8.5 1 0 1.4-.5 1.4-1.1 0-.7-.4-1-1.4-1.4-1.4-.5-2-1.2-2-2.1 0-1.2 1-2.2 2.6-2.2.8 0 1.4.2 1.8.5l-.3 1c-.3-.2-.8-.4-1.5-.4-.8 0-1.2.5-1.2 1 0 .6.4.9 1.4 1.3 1.3.5 2 1.1 2 2.3 0 1.3-1 2.3-2.8 2.3-.8 0-1.6-.2-2.1-.5l.3-1.2M186.4 47.9c-.5.2-1.5.5-2.8.5-2.9 0-5.2-1.9-5.2-5.3 0-3.3 2.2-5.5 5.5-5.5 1.3 0 2.1.3 2.5.5l-.3 1.1c-.5-.2-1.2-.4-2.1-.4-2.5 0-4.1 1.6-4.1 4.3 0 2.6 1.5 4.2 4 4.2.8 0 1.7-.2 2.2-.4l.3 1M190.9 48.4c-2 0-3.6-1.5-3.6-3.9 0-2.5 1.7-4 3.7-4 2.2 0 3.6 1.6 3.6 3.8 0 2.8-1.9 4.1-3.7 4.1m0-1.1c1.3 0 2.3-1.2 2.3-2.9 0-1.3-.6-2.9-2.3-2.9-1.6 0-2.3 1.5-2.3 2.9.1 1.7 1 2.9 2.3 2.9zM202.6 46.1c0 .8 0 1.5.1 2h-1.2l-.1-1.2c-.3.6-1.2 1.4-2.5 1.4-1.2 0-2.6-.7-2.6-3.3v-4.4h1.4v4.1c0 1.4.4 2.4 1.7 2.4.9 0 1.5-.6 1.8-1.3.1-.2.1-.4.1-.7v-4.6h1.4v5.6M204.9 42.7c0-.8 0-1.4-.1-2h1.2l.1 1.2c.4-.7 1.2-1.4 2.5-1.4 1 0 2.7.6 2.7 3.2v4.5h-1.4v-4.3c0-1.2-.5-2.2-1.7-2.2-.9 0-1.6.6-1.8 1.4-.1.2-.1.4-.1.6v4.5h-1.4v-5.5M218.9 47.9c-.4.2-1.1.4-2.2.4-2.3 0-3.7-1.5-3.7-3.8s1.6-4 4-4c.8 0 1.5.2 1.9.4l-.3 1c-.3-.2-.8-.4-1.6-.4-1.7 0-2.7 1.3-2.7 2.9 0 1.7 1.1 2.8 2.6 2.8.8 0 1.3-.2 1.7-.4l.3 1.1M221.1 39.3c-.5 0-.9-.4-.9-.9s.4-.9.9-.9.9.4.9.9-.3.9-.9.9m.7 8.9h-1.4v-7.5h1.4v7.5zM224.1 37.2h1.4v11h-1.4zM103.7 43.2L23.4 68.4 0 4.7 84.3 0l19.4 43.2"/><path fill="#FFF" d="M43 30.4c0 1.6-.4 3-1.1 4.3-.7 1.2-1.7 2.3-3 3.1-1.3.8-2.9 1.4-4.7 1.8-1.8.4-3.8.6-6.1.6h-1.6v8.2H16.1V21.1h12.2c4.6 0 8.2.8 10.8 2.3 2.6 1.5 3.9 3.9 3.9 7m-10 .1c0-2.4-1.8-3.6-5.3-3.6h-1.3v7.3h1.2c1.7 0 3.1-.3 4-.9.9-.5 1.4-1.5 1.4-2.8zM68.8 48.4c-1.6.3-3.4.5-5.5.5-2.9 0-5.5-.3-7.7-1-2.3-.7-4.2-1.6-5.8-2.8-1.6-1.2-2.8-2.7-3.6-4.4-.8-1.8-1.2-3.7-1.2-5.8 0-2.1.4-4 1.3-5.8.9-1.7 2.1-3.2 3.7-4.5 1.6-1.2 3.5-2.2 5.7-2.9 2.2-.7 4.6-1 7.2-1 2 0 3.9.1 5.6.4 1.7.4 1.7.4 3 .9v7.3c-1-.6-2.2-1.1-3.5-1.4-1.3-.4-2.7-.6-4.1-.6-2.4 0-4.3.7-5.8 1.9-1.5 1.3-2.2 3.1-2.2 5.6 0 1.2.2 2.3.7 3.3.5.9 1.1 1.7 1.9 2.3.8.6 1.7 1.1 2.8 1.4 1.1.3 2.2.5 3.4.5 1.2 0 2.5-.1 3.7-.4 1.2-.3 2.5-.6 3.8-1.2v6.9c-1.6.4-1.8.5-3.4.8M76.5 21.1H87v27.4H76.5zM88.1 12.5c0 1.8-.6 3.3-1.8 4.3-1.2 1-2.7 1.6-4.5 1.6-1.8 0-3.3-.5-4.5-1.6-1.2-1-1.8-2.5-1.8-4.3 0-1.9.6-3.3 1.8-4.4C78.5 7 80 6.5 81.8 6.5c1.8 0 3.3.5 4.5 1.6 1.2 1 1.8 2.5 1.8 4.4"/><g><path fill="#02797E" d="M225.8 24.5c0 1.7-1.4 3.1-3.2 3.1-1.8 0-3.2-1.4-3.2-3.1 0-1.7 1.4-3.1 3.2-3.1 1.8 0 3.2 1.4 3.2 3.1zm-5.4 0c0 1.3 1 2.3 2.2 2.3 1.3 0 2.2-1 2.2-2.3 0-1.3-1-2.3-2.3-2.3-1.2 0-2.1 1-2.1 2.3zm1.8 1.5h-.9v-2.9c.2 0 .7-.1 1.3-.1.6 0 .9.1 1.1.2.2.1.3.3.3.6s-.3.5-.7.6c.3.1.5.3.6.7.1.4.1.6.2.7h-1c-.1-.1-.1-.4-.2-.6-.1-.3-.2-.4-.5-.4h-.3V26zm.1-1.6h.3c.3 0 .5-.1.5-.3 0-.2-.2-.4-.5-.4h-.3v.7z"/></g></svg>