<svg xmlns="http://www.w3.org/2000/svg" width="264" height="264" viewBox="0 0 264 264">
  <defs>
    <clipPath id="a">
      <path d="M0 198h198V0H0z" />
    </clipPath>
  </defs>
  <path fill="#fff" d="M0 263.9973333h263.9973267V.0000066H0z" />
  <path fill="#1434CB" d="M0 263.9973333h263.9973267V131.99867H0z" />
  <g clip-path="url(#a)" transform="matrix(1.33333 0 0 -1.33333 0 264)">
    <path fill="#1434CB"
      d="M94.7119 170.3188l-9.51-44.461h-11.503l9.511 44.461zm48.392-28.709l6.054 16.696 3.484-16.696zm12.838-15.752h10.636l-9.292 44.461h-9.811c-2.211 0-4.075-1.282-4.9-3.259l-17.259-41.202h12.08l2.398 6.64h14.755zm-30.027 14.515c.05 11.734-16.221 12.384-16.112 17.627.035 1.593 1.555 3.29 4.877 3.724 1.647.212 6.192.384 11.344-1.99l2.015 9.432c-2.767 1.001-6.328 1.965-10.759 1.965-11.371 0-19.37-6.04-19.434-14.696-.073-6.401 5.714-9.97 10.065-12.102 4.486-2.179 5.989-3.576 5.967-5.523-.031-2.983-3.577-4.304-6.879-4.354-5.786-.09-9.14 1.564-11.813 2.81l-2.088-9.747c2.692-1.232 7.652-2.304 12.788-2.359 12.089 0 19.993 5.969 20.029 15.213m-47.639 29.946l-18.637-44.461h-12.157l-9.172 35.483c-.556 2.182-1.041 2.984-2.732 3.906-2.766 1.502-7.332 2.907-11.347 3.781l.272 1.291h19.572c2.493 0 4.736-1.659 5.307-4.531l4.845-25.73 11.965 30.261z" />
    <path fill="#fff"
      d="M46.1255 44.1699c1.299-.767 3.331-1.433 5.43-1.433 2.598 0 4.063 1.233 4.063 3.065 0 1.699-1.132 2.698-3.964 3.73-3.73 1.3-6.095 3.298-6.095 6.496 0 3.698 3.064 6.462 7.961 6.462 2.432 0 4.197-.533 5.363-1.099l-.966-3.331c-.833.433-2.398 1.066-4.497 1.066-2.598 0-3.697-1.366-3.697-2.698 0-1.733 1.298-2.531 4.297-3.664 3.897-1.499 5.762-3.465 5.762-6.662 0-3.631-2.731-6.729-8.494-6.729-2.398 0-4.863.666-6.096 1.399zM75.708 49.666h-8.461V43.07h9.461v-3.364H63.15v22.451h13.058v-3.364h-8.961v-5.796h8.461zm20.356-9.2939c-.966-.466-3.098-.999-5.829-.999-7.129 0-11.459 4.464-11.459 11.292 0 7.394 5.163 11.825 12.025 11.825 2.698 0 4.597-.533 5.43-.966l-.866-3.264c-1.066.466-2.565.866-4.397.866-4.564 0-7.862-2.865-7.862-8.261 0-4.931 2.865-8.061 7.828-8.061 1.632 0 3.365.333 4.464.799zm7.2319 21.7851v-13.091c0-4.397 1.832-6.429 4.597-6.429 2.965 0 4.73 2.032 4.73 6.429v13.091h4.097v-12.824c0-6.929-3.564-9.993-8.96-9.993-5.197 0-8.561 2.897-8.561 9.959v12.858zm21.8545-10.2265h2.432c2.765 0 4.464 1.466 4.464 3.697 0 2.432-1.699 3.598-4.364 3.598-1.3 0-2.132-.1-2.532-.2zm-4.062 9.894c1.564.299 3.83.499 6.195.499 3.23 0 5.396-.533 6.928-1.799 1.232-1.032 1.931-2.598 1.931-4.531 0-2.897-1.965-4.862-4.096-5.595v-.1c1.631-.599 2.598-2.165 3.131-4.33.733-2.799 1.332-5.396 1.766-6.263h-4.197c-.334.666-.901 2.498-1.5 5.296-.666 2.932-1.699 3.865-4.03 3.931h-2.066v-9.227h-4.062zm31.1802-12.1587h-8.461V43.07h9.46v-3.364h-13.557v22.451h13.057v-3.364h-8.96v-5.796h8.461z" />
  </g>
</svg>
