<svg width="256" height="174" viewBox="0 0 256 174" fill="none" xmlns="http://www.w3.org/2000/svg">
<g clip-path="url(#clip0_21_2)">
<path d="M13.6085 173.086H9.86731V130.153H13.6085V173.086ZM40.9015 130.153C44.1832 130.106 47.4492 130.614 50.5617 131.655C53.2663 132.564 55.7521 134.026 57.8605 135.949C59.8817 137.835 61.4625 140.144 62.4904 142.711C64.6584 148.452 64.6584 154.787 62.4904 160.528C61.4626 163.095 59.8819 165.404 57.8605 167.29C55.7522 169.213 53.2664 170.675 50.5617 171.584C47.4493 172.625 44.1832 173.133 40.9015 173.086H25.2306V130.153H40.9015ZM28.9718 133.71V169.529H40.9015C43.7139 169.579 46.5142 169.148 49.1818 168.256C51.4274 167.495 53.4863 166.267 55.2227 164.653C56.8721 163.078 58.1411 161.148 58.9337 159.01C60.6095 154.225 60.6095 149.013 58.9337 144.229C58.1388 142.087 56.8702 140.153 55.2227 138.571C53.4915 136.949 51.431 135.72 49.1818 134.967C46.512 134.086 43.7126 133.661 40.9015 133.71H28.9718ZM107.601 129.662C109.398 129.657 111.189 129.863 112.938 130.275C114.612 130.669 116.233 131.261 117.767 132.039C119.24 132.785 120.611 133.718 121.846 134.814C123.053 135.887 124.101 137.126 124.958 138.494L121.83 140.579C121.095 139.455 120.213 138.434 119.208 137.544C118.193 136.642 117.07 135.869 115.865 135.243C114.621 134.599 113.303 134.11 111.941 133.787C110.519 133.447 109.062 133.277 107.601 133.281C105.162 133.259 102.741 133.707 100.471 134.599C98.3253 135.445 96.3743 136.718 94.7365 138.341C93.0839 139.997 91.7805 141.968 90.9034 144.137C89.0428 148.952 89.0428 154.287 90.9034 159.102C91.7804 161.271 93.0838 163.242 94.7365 164.898C96.3742 166.521 98.3252 167.794 100.471 168.639C102.741 169.532 105.161 169.98 107.601 169.958C109.056 169.962 110.507 169.798 111.925 169.467C113.283 169.152 114.597 168.668 115.835 168.026C117.04 167.4 118.163 166.628 119.178 165.726C120.188 164.829 121.07 163.797 121.8 162.659L124.866 164.898C123.973 166.24 122.906 167.456 121.693 168.517C120.461 169.59 119.101 170.507 117.645 171.246C116.131 172.014 114.53 172.596 112.876 172.979C108.211 174.041 103.336 173.683 98.8761 171.951C96.2726 170.923 93.9007 169.385 91.8995 167.428C89.9085 165.453 88.3385 163.096 87.2843 160.497C85.0564 154.794 85.0564 148.461 87.2843 142.757C88.336 140.153 89.9062 137.789 91.8995 135.811C93.9009 133.854 96.2727 132.316 98.8761 131.287C101.652 130.187 104.615 129.636 107.601 129.662ZM136.458 149.227C137.006 148.317 137.683 147.491 138.467 146.774C139.215 146.091 140.057 145.518 140.966 145.072C141.864 144.633 142.811 144.304 143.787 144.091C144.754 143.878 145.741 143.77 146.732 143.769C148.412 143.749 150.083 144.024 151.669 144.581C153.096 145.084 154.405 145.871 155.518 146.896C156.606 147.92 157.454 149.171 158.002 150.561C158.602 152.1 158.899 153.74 158.876 155.391V173.086H155.38V156.465C155.398 155.131 155.191 153.804 154.767 152.539C154.392 151.43 153.774 150.419 152.957 149.58C152.134 148.756 151.139 148.122 150.044 147.725C148.785 147.276 147.455 147.058 146.118 147.081C144.824 147.071 143.539 147.305 142.331 147.771C141.187 148.211 140.143 148.878 139.265 149.733C138.384 150.598 137.685 151.63 137.21 152.769C136.698 153.998 136.442 155.318 136.458 156.649V173.086H132.962V128.926H136.458L136.458 149.227ZM179.668 143.769C181.508 143.752 183.331 144.123 185.019 144.857C186.635 145.562 188.087 146.596 189.281 147.893C190.515 149.252 191.478 150.835 192.118 152.555C192.83 154.452 193.193 156.462 193.192 158.489C193.192 158.754 193.187 159.005 193.177 159.24C193.166 159.475 193.151 159.705 193.131 159.93H168.935C169.025 161.479 169.404 162.998 170.054 164.407C170.64 165.666 171.469 166.796 172.492 167.734C173.494 168.645 174.667 169.349 175.942 169.805C177.275 170.281 178.681 170.519 180.097 170.51C181.965 170.542 183.818 170.165 185.526 169.406C187.13 168.663 188.593 167.646 189.849 166.4L191.72 168.793C190.869 169.656 189.928 170.427 188.914 171.093C187.999 171.688 187.022 172.182 186 172.564C185.024 172.929 184.011 173.186 182.98 173.331C181.954 173.474 180.919 173.546 179.883 173.546C177.888 173.567 175.908 173.197 174.056 172.457C172.329 171.766 170.764 170.728 169.456 169.406C168.145 168.063 167.123 166.466 166.45 164.714C165.715 162.786 165.351 160.736 165.377 158.672C165.356 156.623 165.725 154.588 166.466 152.677C167.146 150.92 168.167 149.315 169.471 147.955C170.758 146.629 172.303 145.58 174.01 144.873C175.803 144.128 177.727 143.752 179.668 143.769ZM179.607 146.866C178.226 146.849 176.855 147.104 175.573 147.617C174.382 148.102 173.295 148.81 172.369 149.703C171.432 150.616 170.669 151.691 170.115 152.876C169.518 154.154 169.14 155.522 168.996 156.925H189.635C189.532 155.513 189.19 154.128 188.622 152.831C188.107 151.647 187.373 150.57 186.46 149.657C185.559 148.762 184.489 148.054 183.313 147.575C182.136 147.096 180.877 146.855 179.607 146.866ZM213.308 143.769C215.353 143.749 217.381 144.14 219.273 144.918C221.064 145.658 222.663 146.796 223.949 148.246L221.68 150.607C220.59 149.507 219.306 148.618 217.893 147.985C216.417 147.346 214.824 147.028 213.216 147.05C211.705 147.037 210.207 147.335 208.816 147.924C207.485 148.487 206.28 149.31 205.274 150.347C204.255 151.405 203.457 152.656 202.927 154.026C201.803 157.022 201.803 160.323 202.927 163.318C203.447 164.676 204.237 165.914 205.249 166.958C206.261 168.002 207.474 168.829 208.816 169.391C210.207 169.98 211.705 170.277 213.216 170.265C214.848 170.283 216.464 169.948 217.954 169.283C219.371 168.646 220.663 167.764 221.772 166.677L223.949 169.069C222.652 170.513 221.049 171.649 219.257 172.396C215.434 173.924 211.17 173.929 207.343 172.411C205.59 171.699 204.001 170.637 202.672 169.289C201.344 167.942 200.304 166.339 199.615 164.576C198.164 160.769 198.164 156.561 199.615 152.754C200.3 150.987 201.339 149.38 202.668 148.03C203.997 146.68 205.588 145.616 207.343 144.903C209.236 144.131 211.264 143.745 213.308 143.769ZM234.467 156.403H239.159L251.303 144.229H255.719L241.981 157.845L255.964 173.086H251.518L239.159 159.562H234.467V173.086H230.971V128.926H234.467L234.467 156.403Z" fill="black"/>
<path d="M74.9951 7.69684H43.4951V64.3032H74.9951V7.69684Z" fill="#FF5F00"/>
<path d="M45.4953 36C45.4903 30.5484 46.7257 25.1671 49.1079 20.2635C51.4901 15.36 54.9567 11.0626 59.2452 7.69683C53.9345 3.52246 47.5564 0.926478 40.8401 0.205604C34.1237 -0.515271 27.34 0.668051 21.2643 3.62031C15.1887 6.57256 10.0663 11.1746 6.48248 16.9005C2.89871 22.6264 0.998199 29.2451 0.998199 36C0.998199 42.755 2.89871 49.3736 6.48248 55.0995C10.0663 60.8254 15.1887 65.4275 21.2643 68.3798C27.34 71.332 34.1237 72.5153 40.8401 71.7945C47.5564 71.0736 53.9345 68.4776 59.2452 64.3032C54.9567 60.9374 51.4901 56.6401 49.1079 51.7365C46.7257 46.8329 45.4904 41.4516 45.4953 36Z" fill="#EB001B"/>
<path d="M117.49 36C117.491 42.7548 115.59 49.3735 112.007 55.0994C108.423 60.8253 103.301 65.4274 97.2254 68.3796C91.1499 71.3319 84.3663 72.5153 77.65 71.7944C70.9338 71.0735 64.5558 68.4776 59.2452 64.3032C63.53 60.934 66.9938 56.636 69.3756 51.7332C71.7574 46.8303 72.995 41.4507 72.995 36C72.995 30.5493 71.7574 25.1697 69.3756 20.2669C66.9938 15.364 63.53 11.066 59.2452 7.69681C64.5558 3.52244 70.9338 0.926461 77.65 0.205597C84.3663 -0.515268 91.1499 0.668075 97.2254 3.62036C103.301 6.57265 108.423 11.1747 112.007 16.9006C115.59 22.6265 117.491 29.2452 117.49 36Z" fill="#F79E1B"/>
<path d="M114.056 58.3077V57.1488H114.523V56.9127H113.333V57.1488H113.801V58.3077H114.056ZM116.366 58.3077V56.9104H116.001L115.582 57.8715L115.162 56.9104H114.797V58.3077H115.055V57.2537L115.448 58.1624H115.715L116.109 57.2514V58.3077H116.366Z" fill="#F79E1B"/>
</g>
<defs>
<clipPath id="clip0_21_2">
<rect width="256" height="174" fill="white"/>
</clipPath>
</defs>
</svg>
