<svg id="okNoCircle" data-name="okNoCircle" viewBox="0 0 40 40" width="40" height="40" xmlns="http://www.w3.org/2000/svg">
			<path d="M19.23,20.32a5.26,5.26,0,0,0,5.35-5.16,5.35,5.35,0,0,0-10.69,0A5.26,5.26,0,0,0,19.23,20.32Zm0-7.3A2.14,2.14,0,1,1,17,15.16,2.18,2.18,0,0,1,19.23,13Z" fill="currentColor"/>
			<path d="M21.39,24.53a10.19,10.19,0,0,0,3.11-1.24A1.48,1.48,0,0,0,25,21.21a1.6,1.6,0,0,0-2.16-.48,7,7,0,0,1-7.2,0,1.6,1.6,0,0,0-2.16.48A1.48,1.48,0,0,0,14,23.29a10.19,10.19,0,0,0,3.1,1.24l-3,2.89a1.48,1.48,0,0,0,0,2.14,1.61,1.61,0,0,0,2.21,0l2.94-2.84,2.94,2.84a1.61,1.61,0,0,0,2.21,0,1.47,1.47,0,0,0,0-2.14Z" fill="currentColor"/>
		</svg>