<?xml version="1.0" encoding="utf-8"?>
<!-- Generator: Adobe Illustrator 24.3.0, SVG Export Plug-In . SVG Version: 6.00 Build 0)  -->
<svg version="1.1" id="Layer_1" xmlns="http://www.w3.org/2000/svg" xmlns:xlink="http://www.w3.org/1999/xlink" x="0px" y="0px"
	 viewBox="0 0 145 48" style="enable-background:new 0 0 145 48;" xml:space="preserve">
<path d="M33.2,12H22.7c-4.9,0-6.8,1.8-6.8,6.7v10.5c0,4.9,1.8,6.8,6.8,6.8h10.5c4.9,0,6.7-1.8,6.7-6.8V18.7C40,13.8,38.2,12,33.2,12
	z M26.2,26l-0.3,0.6h-0.6l1.4-3.1h0.6l1.4,3.1H28L27.7,26H26.2z M26.5,25.4h1L27,24.3L26.5,25.4z M36.7,23.5h0.6v3.1h-0.6V23.5z
	 M34.2,26h1.7v0.6h-2.4v-3.1h2.3V24h-1.7v0.6h1.2v0.6h-1.2V26H34.2z M32.4,23.5H33l-1,3.1h-0.5l-0.7-2.1L30,26.6h-0.5l-1.1-3.1H29
	l0.7,2.2l0.7-2.2H31l0.7,2.2L32.4,23.5z M24.3,23.5H25v1.8c0,0.9-0.5,1.4-1.4,1.4c-0.8,0-1.3-0.5-1.3-1.4v-1.8h0.6v1.8
	c0,0.5,0.3,0.8,0.7,0.8s0.7-0.3,0.7-0.8C24.3,25.3,24.3,23.5,24.3,23.5z M20.7,23.5h0.6v3.1h-0.6v-1.3h-1.4v1.3h-0.6v-3.1h0.6v1.3
	h1.4V23.5z M28,19.5c-2.2,0-4-1.8-4-4h0.6c0,1.9,1.5,3.4,3.4,3.4s3.4-1.5,3.4-3.4H32C32,17.7,30.2,19.5,28,19.5z"/>
<g>
	<path d="M58.7,30.3L57.6,27h-4.5L52,30.3h-1.4l3.9-11.2h1.7l3.9,11.2H58.7z M55.4,20.4L55.4,20.4l-2,5.4h3.9L55.4,20.4z"/>
	<path d="M61.8,22.1h1.3v1.3h0.1c0.2-0.5,0.5-0.9,0.9-1.1s0.9-0.4,1.5-0.4c0.5,0,1,0.1,1.4,0.3s0.8,0.5,1.1,0.9
		c0.3,0.4,0.5,0.8,0.7,1.4C69,25,69,25.6,69,26.3c0,0.7-0.1,1.3-0.2,1.8c-0.2,0.5-0.4,1-0.7,1.4c-0.3,0.4-0.6,0.7-1.1,0.9
		c-0.4,0.2-0.9,0.3-1.4,0.3c-1.1,0-1.9-0.5-2.4-1.5h-0.1v4.5h-1.3C61.8,33.7,61.8,22.1,61.8,22.1z M65.2,29.4c0.7,0,1.3-0.2,1.7-0.7
		c0.4-0.5,0.6-1.1,0.6-1.8v-1.4c0-0.7-0.2-1.3-0.6-1.8S66,23,65.2,23c-0.3,0-0.6,0-0.8,0.1s-0.5,0.2-0.7,0.3
		c-0.2,0.1-0.3,0.3-0.5,0.5c-0.1,0.2-0.2,0.4-0.2,0.6v3.1c0,0.3,0.1,0.5,0.2,0.7c0.1,0.2,0.3,0.4,0.5,0.5s0.4,0.3,0.7,0.3
		C64.7,29.3,65,29.4,65.2,29.4z"/>
	<path d="M71.1,22.1h1.3v1.3h0.1c0.2-0.5,0.5-0.9,0.9-1.1s0.9-0.4,1.5-0.4c0.5,0,1,0.1,1.4,0.3s0.8,0.5,1.1,0.9
		c0.3,0.4,0.5,0.8,0.7,1.4c0.2,0.5,0.2,1.1,0.2,1.8c0,0.7-0.1,1.3-0.2,1.8c-0.2,0.5-0.4,1-0.7,1.4c-0.3,0.4-0.6,0.7-1.1,0.9
		c-0.4,0.2-0.9,0.3-1.4,0.3c-1.1,0-1.9-0.5-2.4-1.5h-0.1v4.5h-1.3V22.1z M74.5,29.4c0.7,0,1.3-0.2,1.7-0.7c0.4-0.5,0.6-1.1,0.6-1.8
		v-1.4c0-0.7-0.2-1.3-0.6-1.8s-1-0.7-1.7-0.7c-0.3,0-0.6,0-0.8,0.1s-0.5,0.2-0.7,0.3c-0.2,0.1-0.3,0.3-0.5,0.5
		c-0.1,0.2-0.2,0.4-0.2,0.6v3.1c0,0.3,0.1,0.5,0.2,0.7s0.3,0.4,0.5,0.5s0.4,0.3,0.7,0.3C74,29.3,74.2,29.4,74.5,29.4z"/>
	<path d="M87.8,28.7L87.8,28.7c-0.2,0.5-0.5,0.9-1.1,1.3s-1.2,0.5-2.1,0.5c-0.7,0-1.3-0.1-1.9-0.4s-1.1-0.6-1.5-1.1s-0.7-1.1-1-1.8
		c-0.2-0.7-0.3-1.5-0.3-2.5c0-0.9,0.1-1.8,0.3-2.5c0.2-0.7,0.5-1.3,1-1.8s0.9-0.9,1.5-1.1c0.6-0.3,1.2-0.4,2-0.4
		c1,0,1.8,0.2,2.5,0.7c0.7,0.4,1.2,1,1.6,1.8l-1.1,0.7c-0.3-0.6-0.6-1.1-1.1-1.4s-1.1-0.5-1.8-0.5c-0.5,0-0.9,0.1-1.3,0.3
		c-0.4,0.2-0.8,0.4-1,0.7c-0.3,0.3-0.5,0.7-0.7,1.2c-0.2,0.4-0.2,1-0.2,1.5v1.8c0,0.6,0.1,1.1,0.2,1.5c0.2,0.5,0.4,0.8,0.7,1.2
		c0.3,0.3,0.7,0.6,1.1,0.7c0.4,0.2,0.9,0.3,1.4,0.3c0.4,0,0.7-0.1,1.1-0.2s0.7-0.3,0.9-0.5s0.5-0.5,0.6-0.8s0.2-0.7,0.2-1.1v-1.1
		h-2.5v-1.2H89v5.7h-1.2V28.7z"/>
	<path d="M97.5,30.3c-0.5,0-0.8-0.1-1-0.4s-0.3-0.6-0.4-1H96c-0.2,0.5-0.5,0.9-0.9,1.2s-0.9,0.4-1.5,0.4c-0.9,0-1.6-0.2-2-0.7
		c-0.5-0.4-0.7-1.1-0.7-1.8c0-0.8,0.3-1.4,0.9-1.8s1.5-0.6,2.7-0.6H96v-0.8c0-0.6-0.2-1-0.5-1.3S94.7,23,94.1,23
		c-0.5,0-0.9,0.1-1.3,0.3c-0.3,0.2-0.6,0.5-0.8,0.9l-0.8-0.7c0.2-0.4,0.6-0.8,1.1-1.1c0.5-0.3,1.1-0.5,1.9-0.5c1,0,1.8,0.2,2.3,0.7
		c0.6,0.5,0.8,1.2,0.8,2v4.5h0.9v1.1h-0.7V30.3z M93.8,29.4c0.3,0,0.6,0,0.9-0.1s0.5-0.2,0.7-0.3c0.2-0.1,0.3-0.3,0.4-0.5
		s0.2-0.4,0.2-0.6v-1.4h-1.7c-0.7,0-1.3,0.1-1.6,0.3c-0.3,0.2-0.5,0.5-0.5,0.9V28c0,0.4,0.1,0.7,0.4,0.9S93.3,29.4,93.8,29.4z"/>
	<path d="M101.4,30.3c-0.4,0-0.8-0.1-1-0.4s-0.3-0.6-0.3-1V18.5h1.3v10.7h1.2v1.1C102.6,30.3,101.4,30.3,101.4,30.3z"/>
	<path d="M105.7,30.3c-0.4,0-0.8-0.1-1-0.4s-0.3-0.6-0.3-1V18.5h1.3v10.7h1.2v1.1C106.9,30.3,105.7,30.3,105.7,30.3z"/>
	<path d="M111.8,30.5c-0.6,0-1.1-0.1-1.5-0.3c-0.5-0.2-0.8-0.5-1.2-0.9c-0.3-0.4-0.6-0.8-0.8-1.4c-0.2-0.5-0.3-1.1-0.3-1.8
		c0-0.7,0.1-1.2,0.3-1.8c0.2-0.5,0.4-1,0.8-1.4c0.3-0.4,0.7-0.7,1.2-0.9c0.5-0.2,1-0.3,1.5-0.3c0.6,0,1.1,0.1,1.5,0.3
		c0.4,0.2,0.8,0.5,1.1,0.8c0.3,0.4,0.5,0.8,0.7,1.3s0.2,1,0.2,1.6v0.6h-5.9v0.4c0,0.4,0.1,0.7,0.2,1s0.3,0.6,0.5,0.8
		s0.5,0.4,0.8,0.5s0.6,0.2,1,0.2c0.5,0,1-0.1,1.4-0.4c0.4-0.2,0.7-0.6,0.9-1.1l0.9,0.7c-0.3,0.6-0.7,1-1.2,1.4
		C113.2,30.3,112.6,30.5,111.8,30.5z M111.8,22.9c-0.4,0-0.7,0.1-1,0.2s-0.5,0.3-0.7,0.5s-0.4,0.5-0.5,0.8s-0.2,0.6-0.2,1v0.1h4.6
		v-0.2c0-0.7-0.2-1.3-0.6-1.8C113,23.2,112.4,22.9,111.8,22.9z"/>
	<path d="M117.5,30.3V22h1.3v1.5h0.1c0.1-0.4,0.4-0.7,0.8-1.1c0.4-0.3,0.9-0.5,1.6-0.5h0.5v1.3H121c-0.7,0-1.2,0.1-1.6,0.4
		s-0.6,0.6-0.6,1v5.6h-1.3V30.3z"/>
	<path d="M128.6,22.1h1.3l-3.7,10.2c-0.1,0.2-0.2,0.5-0.3,0.6c-0.1,0.2-0.2,0.3-0.4,0.4c-0.1,0.1-0.3,0.2-0.5,0.2s-0.5,0.1-0.8,0.1
		h-0.7v-1.1h1.3l0.6-1.8l-3.1-8.6h1.3l2,5.6L126,29h0.1l0.4-1.3L128.6,22.1z"/>
</g>
</svg>
