<?xml version="1.0" encoding="utf-8"?>
<!-- Generator: Adobe Illustrator 24.3.0, SVG Export Plug-In . SVG Version: 6.00 Build 0)  -->
<svg version="1.1" id="_9f642c51-2c54-4dac-9895-4ac83650fbd4"
	 xmlns="http://www.w3.org/2000/svg" xmlns:xlink="http://www.w3.org/1999/xlink" x="0px" y="0px" viewBox="0 0 145 48"
	 style="enable-background:new 0 0 145 48;" xml:space="preserve">
<g id="googlePlay">
	<path d="M19.2,35.8c0.5,0.3,1.1,0.3,1.5,0l12.5-6.9l-3.7-3.7L19,35.7L19.2,35.8z M18.4,14.1v20l10-10L18.4,14.1z M30.6,24.1l4,4
		l5-2.8c0.2-0.1,0.5-0.3,0.6-0.6c0.4-0.7,0.1-1.6-0.6-2L34.7,20C34.7,19.9,30.7,24.1,30.6,24.1z M29.6,23l3.9-3.8l-12.6-7
		c-0.5-0.3-1.1-0.3-1.5,0c-0.1,0.1-0.2,0.1-0.3,0.2C18.9,12.4,29.6,23,29.6,23z"/>
	<path d="M60.1,28.9h1.2v-5H58v1h2.2v1c0,0.3,0,0.7-0.2,1c-0.1,0.3-0.3,0.5-0.5,0.7S59,27.9,58.7,28s-0.7,0.1-1,0.1
		c-0.4,0-0.9-0.1-1.3-0.2c-0.4-0.1-0.7-0.4-1-0.7c-0.3-0.3-0.5-0.6-0.6-1s-0.2-0.9-0.2-1.3v-1.6c0-0.5,0.1-0.9,0.2-1.3
		c0.1-0.4,0.3-0.7,0.6-1s0.6-0.5,0.9-0.6c0.4-0.2,0.8-0.2,1.2-0.2c1.1,0,2.1,0.6,2.6,1.7l1-0.6c-0.6-1.4-2-2.2-3.6-2.1
		c-0.6,0-1.2,0.1-1.7,0.4c-0.5,0.2-1,0.6-1.3,1c-0.4,0.5-0.7,1-0.8,1.6c-0.2,0.7-0.3,1.4-0.3,2.2c0,0.7,0.1,1.5,0.3,2.2
		c0.2,0.6,0.5,1.1,0.8,1.6c0.3,0.4,0.8,0.8,1.3,1s1.1,0.3,1.7,0.3c0.6,0,1.3-0.1,1.8-0.5c0.4-0.3,0.8-0.7,0.9-1.1l0,0
		C60.1,27.6,60.1,28.9,60.1,28.9z M66.1,29.2c0.4,0,0.9-0.1,1.3-0.3c0.4-0.2,0.7-0.4,1-0.8s0.5-0.8,0.7-1.2c0.3-1,0.3-2.1,0-3.1
		c-0.1-0.4-0.4-0.8-0.7-1.2c-0.3-0.3-0.6-0.6-1-0.8c-0.4-0.2-0.9-0.3-1.3-0.2c-0.5,0-0.9,0.1-1.3,0.3c-0.4,0.2-0.7,0.4-1,0.8
		c-0.3,0.4-0.5,0.8-0.7,1.2c-0.3,1-0.3,2.1,0,3.1c0.2,0.4,0.4,0.8,0.7,1.2c0.3,0.3,0.6,0.6,1,0.8C65.2,29.1,65.6,29.2,66.1,29.2
		L66.1,29.2z M66.1,28.2c-0.6,0-1.1-0.2-1.5-0.6c-0.4-0.5-0.6-1.1-0.6-1.7v-1c0-0.6,0.2-1.2,0.6-1.7c0.8-0.8,2.2-0.8,3,0
		c0.4,0.5,0.6,1.1,0.6,1.7v1c0.1,0.6-0.2,1.2-0.6,1.7C67.2,28,66.6,28.2,66.1,28.2L66.1,28.2z M73.9,29.2c0.4,0,0.9-0.1,1.3-0.3
		c0.4-0.2,0.7-0.4,1-0.8s0.5-0.8,0.7-1.2c0.3-1,0.3-2.1,0-3.1c-0.1-0.4-0.4-0.8-0.7-1.2c-0.3-0.3-0.6-0.6-1-0.8
		c-0.4-0.2-0.9-0.3-1.3-0.3c-0.5,0-0.9,0.1-1.3,0.3c-0.4,0.2-0.7,0.4-1,0.8s-0.5,0.8-0.7,1.2c-0.3,1-0.3,2.1,0,3.1
		c0.2,0.4,0.4,0.8,0.7,1.2c0.3,0.3,0.6,0.6,1,0.8S73.5,29.2,73.9,29.2L73.9,29.2L73.9,29.2z M73.9,28.2c-0.6,0-1.1-0.2-1.6-0.6
		c-0.4-0.5-0.6-1.1-0.6-1.7v-1c-0.1-0.6,0.2-1.3,0.6-1.7c0.8-0.8,2.2-0.8,3,0c0.4,0.5,0.6,1.1,0.6,1.7v1c0.1,0.6-0.2,1.2-0.6,1.7
		C75,28,74.5,28.2,73.9,28.2L73.9,28.2L73.9,28.2z M85.1,29.8c0-0.5-0.2-1-0.6-1.4c-0.6-0.4-1.3-0.6-1.9-0.5H81
		c-0.3,0-0.5,0-0.8-0.1c-0.2-0.1-0.3-0.2-0.3-0.4c0-0.2,0.1-0.4,0.3-0.5c0.2-0.1,0.4-0.2,0.7-0.3c0.2,0,0.5,0.1,0.7,0.1
		c0.4,0,0.8-0.1,1.1-0.2c0.3-0.1,0.6-0.3,0.8-0.5c0.2-0.2,0.4-0.5,0.6-0.8c0.1-0.3,0.2-0.7,0.2-1c0-0.4-0.1-0.7-0.2-1
		s-0.3-0.6-0.6-0.8v-0.5h1.4v-1h-1.1c-0.2,0-0.5,0.1-0.6,0.3c-0.1,0.2-0.2,0.4-0.2,0.7V22c-0.4-0.2-0.9-0.3-1.4-0.3
		c-0.4,0-0.8,0.1-1.1,0.2c-0.3,0.1-0.6,0.3-0.8,0.5c-0.2,0.2-0.4,0.5-0.6,0.8c-0.1,0.3-0.2,0.7-0.2,1c0,0.5,0.1,0.9,0.3,1.3
		c0.2,0.4,0.6,0.7,1,0.9l0,0c-0.3,0.1-0.6,0.2-0.9,0.4c-0.1,0.1-0.2,0.2-0.2,0.3c-0.3,0.6,0,1.2,0.5,1.5v0.1
		c-0.3,0.1-0.6,0.2-0.8,0.5c-0.2,0.3-0.3,0.6-0.3,0.9c0,0.5,0.2,1,0.7,1.3c0.8,0.4,1.6,0.5,2.4,0.5c0.9,0.1,1.8-0.1,2.6-0.5
		C84.8,31.1,85.1,30.5,85.1,29.8L85.1,29.8z M84.1,29.9c0,0.4-0.2,0.7-0.5,0.9c-0.4,0.2-1,0.3-1.5,0.3h-1c-0.4,0-0.9-0.1-1.2-0.3
		c-0.2-0.2-0.3-0.5-0.3-0.8c0-0.5,0.2-0.9,0.7-1h2.4c0.4,0,0.8,0,1.2,0.2C84,29.3,84.1,29.6,84.1,29.9L84.1,29.9L84.1,29.9z
		 M81.6,25.7c-0.4,0-0.8-0.1-1.1-0.3c-0.3-0.3-0.4-0.7-0.4-1.1v-0.4c0-0.4,0.1-0.8,0.4-1c0.7-0.5,1.6-0.5,2.3,0
		c0.3,0.2,0.4,0.6,0.4,1v0.4c0,0.4-0.1,0.8-0.4,1.1C82.4,25.6,82,25.7,81.6,25.7L81.6,25.7z M88.6,29v-1h-1.1v-9.4h-1.1v9.2
		c0,0.3,0.1,0.6,0.3,0.8c0.2,0.2,0.6,0.3,0.9,0.3C87.6,29,88.6,29,88.6,29z M93,29.1c0.6,0,1.3-0.1,1.8-0.5c0.5-0.3,0.8-0.7,1.1-1.2
		l-0.8-0.6c-0.2,0.4-0.4,0.7-0.8,0.9c-0.4,0.2-0.8,0.3-1.2,0.3c-0.3,0-0.6,0-0.9-0.2c-0.2-0.1-0.5-0.3-0.7-0.5s-0.3-0.4-0.4-0.7
		C91,26.3,91,26,91,25.7v-0.3h5.2v-0.5c0-0.5-0.1-1-0.2-1.4s-0.3-0.8-0.6-1.1c-0.3-0.3-0.6-0.6-1-0.7c-0.4-0.2-0.8-0.3-1.3-0.3
		s-0.9,0.1-1.3,0.3c-0.4,0.2-0.7,0.4-1,0.8s-0.5,0.8-0.7,1.2c-0.3,1-0.3,2.1,0,3.1c0.2,0.4,0.4,0.8,0.7,1.2c0.3,0.3,0.6,0.6,1,0.8
		C92.1,29.1,92.5,29.2,93,29.1L93,29.1L93,29.1z M93,22.6c0.5,0,1.1,0.2,1.4,0.6c0.4,0.4,0.6,1,0.5,1.5v0.1h-4v-0.1
		c0-0.3,0.1-0.6,0.2-0.9s0.2-0.5,0.4-0.7c0.2-0.2,0.4-0.4,0.7-0.5C92.4,22.6,92.7,22.6,93,22.6L93,22.6L93,22.6z M102.5,28.9v-4.2
		h2.7c0.7,0,1.5-0.2,2-0.7c0.5-0.6,0.8-1.3,0.7-2.1c0-0.7-0.2-1.5-0.7-2s-1.3-0.8-2-0.8h-3.9V29C101.4,29,102.5,28.9,102.5,28.9z
		 M102.5,20.3h2.7c0.4,0,0.8,0.1,1.1,0.4c0.3,0.3,0.4,0.6,0.4,1v0.7c0,0.4-0.1,0.7-0.4,1s-0.7,0.4-1.1,0.4h-2.7V20.3z M111.9,29v-1
		h-1.1v-9.4h-1.1v9.2c0,0.3,0.1,0.6,0.3,0.8c0.2,0.2,0.6,0.3,0.9,0.3C110.9,29,111.9,29,111.9,29z M119.3,29v-1h-0.8v-4
		c0-0.7-0.2-1.3-0.7-1.8c-0.6-0.5-1.3-0.7-2-0.6c-0.6,0-1.1,0.1-1.6,0.4c-0.4,0.2-0.7,0.6-0.9,1l0.7,0.6c0.2-0.3,0.4-0.6,0.7-0.8
		c0.3-0.2,0.7-0.3,1.1-0.3c0.5,0,0.9,0.1,1.3,0.4c0.3,0.3,0.4,0.8,0.4,1.2v0.7H116c-0.8-0.1-1.6,0.1-2.3,0.5c-0.5,0.4-0.8,1-0.7,1.6
		c0,0.6,0.2,1.2,0.6,1.6c0.5,0.4,1.1,0.6,1.8,0.6c0.5,0,0.9-0.1,1.3-0.3c0.4-0.2,0.6-0.6,0.8-1h0.1c0,0.3,0.2,0.6,0.3,0.8
		c0.2,0.2,0.6,0.4,0.9,0.3C118.8,29,119.3,29,119.3,29z M115.5,28.2c-0.4,0-0.7-0.1-1-0.3c-0.2-0.2-0.4-0.5-0.4-0.8v-0.3
		c0-0.3,0.2-0.6,0.4-0.8c0.4-0.2,0.9-0.3,1.4-0.3h1.5v1.2c0,0.2-0.1,0.4-0.1,0.5c-0.1,0.2-0.2,0.3-0.4,0.4c-0.2,0.1-0.4,0.2-0.6,0.3
		C116.1,28.2,115.8,28.2,115.5,28.2L115.5,28.2L115.5,28.2z M123.7,26.7l-0.4,1.2h-0.1l-0.3-1.2l-1.7-4.9h-1.1l2.7,7.5l-0.6,1.5
		h-1.1v1h0.6c0.2,0,0.4,0,0.7-0.1c0.2,0,0.3-0.1,0.5-0.2c0.1-0.1,0.2-0.2,0.3-0.3c0.1-0.2,0.2-0.3,0.2-0.5l3.2-8.9h-1.1L123.7,26.7z
		"/>
</g>
</svg>
