<?xml version="1.0" encoding="utf-8"?>
<!-- Generator: Adobe Illustrator 24.3.0, SVG Export Plug-In . SVG Version: 6.00 Build 0)  -->
<svg version="1.1" id="Layer_1" xmlns="http://www.w3.org/2000/svg" xmlns:xlink="http://www.w3.org/1999/xlink" x="0px" y="0px"
	 viewBox="0 0 145 48" style="enable-background:new 0 0 145 48;" xml:space="preserve">
<style type="text/css">
	.st0{fill-rule:evenodd;clip-rule:evenodd;}
</style>
<path class="st0" d="M36.4,36c-5.4,0-8.1,0-9.8-1.7c-1.7-1.7-1.7-4.4-1.7-9.8v-1c0-5.4,0-8.1,1.7-9.8C28.3,12,31,12,36.4,12h1
	c5.4,0,8.2,0,9.8,1.7c1.7,1.7,1.7,4.4,1.7,9.8v1c0,5.4,0,8.1-1.7,9.8S42.8,36,37.4,36H36.4z M43.8,17.6l-4.7-1.2
	c-0.7-0.2-1.5,0.4-1.5,1.1V19l-2.9-0.7c-0.7-0.2-1.5,0.4-1.5,1.1v1.4L30.4,20c-0.7-0.2-1.5,0.4-1.5,1.1V29c0,0.7,0.5,1.2,1.1,1.4
	l4.6,1.2c0.7,0.2,1.5-0.4,1.5-1.1V29l0,0v-6.4c0-0.7-0.4-1-0.6-1.2v-0.1h0.1c0.6,0.2,1.2,0.8,1.3,1.6l0.2,6c0,0.2,0.2,0.4,0.3,0.4
	l1.6,0.4c0.7,0.2,1.5-0.4,1.5-1.1v-1.4l0,0v-6.4c0-0.7-0.4-1-0.6-1.2v-0.1H40c0.6,0.2,1.2,0.8,1.3,1.6l0.2,6c0,0.2,0.2,0.4,0.4,0.4
	l1.6,0.4c0.7,0.2,1.5-0.4,1.5-1.1V19C44.9,18.4,44.4,17.8,43.8,17.6L43.8,17.6z"/>
<g>
	<path d="M60.6,29.6h-1.3V18.4h4.4c1,0,1.7,0.3,2.3,0.8s0.8,1.3,0.8,2.4c0,0.8-0.2,1.5-0.6,2s-0.9,0.9-1.7,1l2.6,4.9h-1.5l-2.4-4.8
		h-2.6C60.6,24.7,60.6,29.6,60.6,29.6z M63.7,23.6c0.5,0,0.9-0.1,1.2-0.4s0.4-0.7,0.4-1.2v-0.8c0-0.5-0.1-0.9-0.4-1.2
		s-0.7-0.4-1.2-0.4h-3.1v4H63.7z"/>
	<path d="M74.4,28.3L74.4,28.3c-0.1,0.2-0.3,0.4-0.4,0.6s-0.3,0.3-0.5,0.5c-0.2,0.1-0.4,0.3-0.7,0.3s-0.6,0.1-0.9,0.1
		c-0.9,0-1.5-0.3-2-0.8s-0.8-1.3-0.8-2.3v-5.3h1.3v5.1c0,1.5,0.6,2.2,1.9,2.2c0.3,0,0.5,0,0.7-0.1s0.5-0.2,0.6-0.3
		c0.2-0.1,0.3-0.3,0.4-0.5s0.2-0.4,0.2-0.7v-5.7h1.3v8.3h-1.3v-1.4C74.2,28.3,74.4,28.3,74.4,28.3z"/>
	<path d="M81.7,29.8c-0.9,0-1.7-0.2-2.3-0.5c-0.6-0.3-1.2-0.8-1.6-1.4l1-0.8c0.4,0.5,0.8,0.9,1.3,1.2s1,0.4,1.7,0.4
		c0.8,0,1.4-0.2,1.8-0.6s0.6-0.9,0.6-1.5c0-0.5-0.2-0.9-0.5-1.2c-0.3-0.3-0.8-0.5-1.6-0.7l-0.9-0.2c-1-0.2-1.8-0.6-2.3-1.1
		s-0.8-1.1-0.8-2c0-0.5,0.1-0.9,0.3-1.3c0.2-0.4,0.4-0.7,0.8-1c0.3-0.3,0.7-0.5,1.2-0.6s1-0.2,1.5-0.2c0.8,0,1.6,0.2,2.2,0.5
		s1.1,0.8,1.5,1.4l-1,0.7c-0.3-0.4-0.7-0.8-1.1-1s-1-0.4-1.6-0.4c-0.7,0-1.3,0.2-1.7,0.5c-0.4,0.3-0.6,0.8-0.6,1.4
		c0,0.5,0.2,0.9,0.5,1.2s0.9,0.5,1.6,0.6l0.9,0.2c1.1,0.2,1.9,0.6,2.4,1.1s0.7,1.2,0.7,2c0,0.5-0.1,1-0.3,1.4
		c-0.2,0.4-0.4,0.8-0.8,1.1c-0.3,0.3-0.7,0.5-1.2,0.7C82.8,29.7,82.3,29.8,81.7,29.8z"/>
	<path d="M89.6,29.6c-0.4,0-0.8-0.1-1-0.4s-0.3-0.6-0.3-1v-5.8h-1.4v-1.1h0.8c0.3,0,0.5-0.1,0.6-0.2s0.2-0.3,0.2-0.6V19h1.2v2.3h1.8
		v1.1h-1.8v6h1.7v1.1h-1.8L89.6,29.6L89.6,29.6z"/>
	<path d="M96.4,29.8c-0.6,0-1.1-0.1-1.5-0.3c-0.5-0.2-0.9-0.5-1.2-0.9c-0.3-0.4-0.6-0.8-0.8-1.4c-0.2-0.5-0.3-1.1-0.3-1.8
		c0-0.7,0.1-1.2,0.3-1.8c0.2-0.5,0.4-1,0.8-1.4c0.3-0.4,0.7-0.7,1.2-0.9s1-0.3,1.5-0.3s1.1,0.1,1.5,0.3c0.5,0.2,0.8,0.5,1.2,0.9
		c0.3,0.4,0.6,0.8,0.8,1.4c0.2,0.5,0.3,1.1,0.3,1.8c0,0.7-0.1,1.3-0.3,1.8c-0.2,0.5-0.4,1-0.8,1.4s-0.7,0.7-1.2,0.9
		C97.5,29.7,97,29.8,96.4,29.8z M96.4,28.6c0.7,0,1.3-0.2,1.7-0.6s0.7-1.1,0.7-2v-1.2c0-0.9-0.2-1.5-0.7-2s-1-0.6-1.7-0.6
		s-1.3,0.2-1.7,0.6c-0.4,0.4-0.7,1.1-0.7,2V26c0,0.9,0.2,1.5,0.7,2C95.2,28.4,95.7,28.6,96.4,28.6z"/>
	<path d="M102.3,29.6v-8.3h1.3v1.5h0.1c0.1-0.4,0.4-0.7,0.8-1.1c0.4-0.3,0.9-0.5,1.6-0.5h0.5v1.3h-0.8c-0.7,0-1.2,0.1-1.6,0.4
		s-0.6,0.6-0.6,1v5.6h-1.3V29.6z"/>
	<path d="M111.2,29.8c-0.6,0-1.1-0.1-1.5-0.3c-0.5-0.2-0.8-0.5-1.2-0.9c-0.3-0.4-0.6-0.8-0.8-1.4c-0.2-0.5-0.3-1.1-0.3-1.8
		c0-0.7,0.1-1.2,0.3-1.8c0.2-0.5,0.4-1,0.8-1.4c0.3-0.4,0.7-0.7,1.2-0.9c0.5-0.2,1-0.3,1.5-0.3c0.6,0,1.1,0.1,1.5,0.3
		c0.4,0.2,0.8,0.5,1.1,0.8c0.3,0.4,0.5,0.8,0.7,1.3s0.2,1,0.2,1.6v0.6h-5.9V26c0,0.4,0.1,0.7,0.2,1s0.3,0.6,0.5,0.8s0.5,0.4,0.8,0.5
		s0.6,0.2,1,0.2c0.5,0,1-0.1,1.4-0.4c0.4-0.2,0.7-0.6,0.9-1.1l0.9,0.7c-0.3,0.6-0.7,1-1.2,1.4C112.6,29.6,111.9,29.8,111.2,29.8z
		 M111.2,22.2c-0.4,0-0.7,0.1-1,0.2s-0.5,0.3-0.7,0.5s-0.4,0.5-0.5,0.8s-0.2,0.6-0.2,1v0.1h4.6v-0.2c0-0.7-0.2-1.3-0.6-1.8
		C112.3,22.4,111.8,22.2,111.2,22.2z"/>
</g>
</svg>
