<?xml version="1.0" encoding="utf-8"?>
<!-- Generator: Adobe Illustrator 24.3.0, SVG Export Plug-In . SVG Version: 6.00 Build 0)  -->
<svg version="1.1" id="_9f642c51-2c54-4dac-9895-4ac83650fbd4"
	 xmlns="http://www.w3.org/2000/svg" xmlns:xlink="http://www.w3.org/1999/xlink" x="0px" y="0px" viewBox="0 0 145 48"
	 style="enable-background:new 0 0 145 48;" xml:space="preserve">
<g id="appStore">
	<path d="M42.7,27.5c-1.6-2.5-0.8-5.8,1.7-7.4c-1-1.4-2.6-2.3-4.4-2.4c-1.9-0.2-3.6,1.1-4.6,1.1s-2.5-1-4-1c-2.9,0-6.2,2.4-6.2,7.1
		c0,5.2,4,11.1,6.5,11c1.5-0.1,2-1,3.9-1s2.4,1,4,1c2.4,0,4.8-4.1,5.6-6.4C44.2,29.2,43.3,28.4,42.7,27.5z M35.3,17.5
		c-0.1-2.8,2-5.2,4.8-5.5C40.4,14.8,37.8,17.7,35.3,17.5z"/>
	<path d="M66.9,31l-3.4-9.8H62L58.6,31h1.2l1-2.9h3.9l1,2.9H66.9z M64.4,27.1H61l1.7-4.8h0.1L64.4,27.1z M68.4,33.8h1.1v-4h0.1
		c0.3,0.8,1.2,1.4,2.1,1.3c0.4,0,0.8-0.1,1.2-0.3c0.4-0.2,0.7-0.4,0.9-0.8c0.3-0.4,0.5-0.8,0.6-1.2c0.3-1,0.3-2.1,0-3.1
		c-0.1-0.4-0.3-0.8-0.6-1.2c-0.2-0.3-0.6-0.6-0.9-0.8c-0.4-0.2-0.8-0.3-1.2-0.3c-0.5,0-0.9,0.1-1.3,0.3c-0.4,0.2-0.7,0.6-0.8,1h-0.1
		v-1.1h-1.1L68.4,33.8L68.4,33.8z M71.4,30.2c-0.2,0-0.5,0-0.7-0.1s-0.4-0.1-0.6-0.3c-0.2-0.1-0.3-0.3-0.4-0.5s-0.1-0.4-0.1-0.6V26
		c0-0.2,0.1-0.4,0.1-0.5c0.1-0.2,0.2-0.3,0.4-0.5c0.2-0.1,0.4-0.2,0.6-0.3c0.2-0.1,0.5-0.1,0.7-0.1c0.6,0,1.1,0.2,1.5,0.6
		s0.6,1,0.6,1.5V28c0,0.6-0.2,1.1-0.6,1.6C72.5,30,72,30.2,71.4,30.2L71.4,30.2L71.4,30.2z M76.6,33.8h1.1v-4h0.1
		c0.3,0.8,1.2,1.4,2.1,1.3c0.4,0,0.8-0.1,1.2-0.3c0.4-0.2,0.7-0.4,0.9-0.8c0.3-0.4,0.5-0.8,0.6-1.2c0.3-1,0.3-2.1,0-3.1
		c-0.1-0.4-0.3-0.8-0.6-1.2c-0.2-0.3-0.6-0.6-0.9-0.8c-0.4-0.2-0.8-0.3-1.2-0.3c-0.5,0-0.9,0.1-1.3,0.3c-0.4,0.2-0.7,0.6-0.8,1h-0.1
		v-1.1h-1.1L76.6,33.8L76.6,33.8z M79.6,30.2c-0.2,0-0.5,0-0.7-0.1s-0.4-0.1-0.6-0.3c-0.2-0.1-0.3-0.3-0.4-0.5s-0.1-0.4-0.1-0.6V26
		c0-0.2,0.1-0.4,0.1-0.5c0.1-0.2,0.2-0.3,0.4-0.5c0.2-0.1,0.4-0.2,0.6-0.3c0.2-0.1,0.5-0.1,0.7-0.1c0.6,0,1.1,0.2,1.5,0.6
		s0.6,1,0.6,1.5V28c0,0.6-0.2,1.1-0.6,1.6C80.7,30,80.1,30.2,79.6,30.2L79.6,30.2z M90.8,31.2c0.5,0,0.9-0.1,1.4-0.2
		c0.4-0.1,0.8-0.3,1.1-0.6c0.3-0.2,0.5-0.5,0.7-0.8c0.2-0.4,0.2-0.8,0.2-1.2c0-0.6-0.2-1.3-0.6-1.8c-0.6-0.5-1.3-0.9-2.1-1l-0.8-0.2
		c-0.5-0.1-1-0.3-1.4-0.6c-0.3-0.3-0.5-0.7-0.4-1.1c0-0.5,0.2-0.9,0.5-1.2c0.4-0.3,1-0.4,1.5-0.4s1,0.1,1.4,0.3
		c0.4,0.2,0.7,0.5,1,0.9l0.9-0.7c-0.3-0.5-0.8-0.9-1.3-1.2C92.3,21.1,91.7,21,91,21c-0.4,0-0.9,0.1-1.3,0.2s-0.7,0.3-1,0.5
		s-0.5,0.5-0.7,0.8c-0.2,0.4-0.2,0.8-0.2,1.1c0,0.7,0.2,1.3,0.7,1.8c0.6,0.5,1.3,0.8,2.1,0.9l0.8,0.2c0.5,0.1,1,0.3,1.4,0.6
		c0.3,0.3,0.4,0.7,0.4,1.1c0,0.5-0.2,1-0.6,1.3c-0.4,0.4-1,0.5-1.6,0.5c-0.5,0-1-0.1-1.5-0.4c-0.4-0.2-0.8-0.6-1.2-1l-0.9,0.7
		c0.4,0.5,0.9,0.9,1.4,1.3C89.5,31,90.2,31.2,90.8,31.2L90.8,31.2L90.8,31.2z M99.2,31v-1h-1.5v-5.2h1.6v-1h-1.6v-2h-1v1.3
		c0,0.2,0,0.4-0.1,0.5s-0.3,0.2-0.5,0.1h-0.7v1h1.2v5.1c0,0.3,0.1,0.6,0.3,0.9c0.2,0.2,0.6,0.3,0.9,0.3C97.7,31,99.2,31,99.2,31z
		 M103.7,31.2c0.5,0,0.9-0.1,1.3-0.3s0.7-0.4,1-0.8s0.5-0.8,0.7-1.2c0.3-1,0.3-2.1,0-3.1c-0.1-0.4-0.4-0.8-0.7-1.2
		c-0.3-0.3-0.6-0.6-1-0.8c-0.4-0.2-0.9-0.3-1.3-0.3c-0.5,0-0.9,0.1-1.3,0.3c-0.4,0.2-0.7,0.4-1,0.8s-0.5,0.8-0.7,1.2
		c-0.3,1-0.3,2.1,0,3.1c0.2,0.4,0.4,0.8,0.7,1.2c0.3,0.3,0.6,0.6,1,0.8C102.8,31.1,103.3,31.2,103.7,31.2L103.7,31.2L103.7,31.2z
		 M103.7,30.2c-0.6,0-1.1-0.2-1.5-0.6c-0.4-0.5-0.6-1.1-0.6-1.7v-1c-0.1-0.6,0.2-1.2,0.6-1.7c0.8-0.8,2.2-0.8,3,0
		c0.4,0.5,0.6,1.1,0.6,1.7v1c0.1,0.6-0.2,1.2-0.6,1.7C104.8,30,104.3,30.2,103.7,30.2L103.7,30.2z M109.9,31v-4.9
		c0-0.4,0.2-0.7,0.5-0.9c0.4-0.3,0.9-0.4,1.4-0.4h0.7v-1.1h-0.4c-0.5,0-1,0.1-1.4,0.4c-0.3,0.2-0.6,0.6-0.7,0.9l0,0v-1.3h-1.1V31
		C108.8,31,110,31,109.9,31z M116.6,31.2c0.6,0,1.3-0.1,1.8-0.4s0.8-0.7,1.1-1.2l-0.8-0.6c-0.2,0.4-0.4,0.7-0.8,0.9
		c-0.4,0.2-0.8,0.3-1.2,0.3c-0.3,0-0.6,0-0.9-0.2c-0.2-0.1-0.5-0.3-0.7-0.5s-0.3-0.4-0.4-0.7c-0.1-0.3-0.1-0.6-0.1-0.9v-0.3h5.2
		v-0.5c0-0.5-0.1-1-0.2-1.4s-0.3-0.8-0.6-1.1c-0.3-0.3-0.6-0.6-1-0.7c-0.4-0.2-0.8-0.3-1.3-0.3s-0.9,0.1-1.3,0.3
		c-0.4,0.2-0.7,0.4-1,0.8s-0.5,0.8-0.7,1.2c-0.3,1-0.3,2.1,0,3.1c0.2,0.4,0.4,0.8,0.7,1.2c0.3,0.3,0.6,0.6,1,0.8
		C115.7,31.1,116.2,31.2,116.6,31.2L116.6,31.2L116.6,31.2z M116.6,24.6c0.6,0,1.1,0.2,1.4,0.6c0.4,0.4,0.6,1,0.5,1.5v0.1h-4v-0.1
		c0-0.3,0.1-0.6,0.2-0.9s0.2-0.5,0.4-0.7c0.2-0.2,0.4-0.4,0.7-0.5C116,24.6,116.3,24.6,116.6,24.6L116.6,24.6L116.6,24.6z"/>
</g>
</svg>
