<?xml version="1.0" encoding="utf-8"?>
<!-- Generator: Adobe Illustrator 24.3.0, SVG Export Plug-In . SVG Version: 6.00 Build 0)  -->
<svg version="1.1" id="Layer_1" xmlns="http://www.w3.org/2000/svg" xmlns:xlink="http://www.w3.org/1999/xlink" x="0px" y="0px"
	 viewBox="0 0 145 48" style="enable-background:new 0 0 145 48;" xml:space="preserve">
<path d="M29.8,20.5v0.3h2.6c0.2,0,0.4,0,0.6,0.2c0.2,0.2,0.2,0.4,0.2,0.6v2.6c0,0.2,0,0.4-0.2,0.6C32.8,25,32.6,25,32.4,25h-1.3
	c-0.2,0-0.5,0-0.6-0.2c-0.1-0.2,0-0.5,0.2-0.6l1.7-2.3h-2.6l-1,1.4c-0.2,0.2-0.3,0.4-0.3,0.7s0.1,0.5,0.3,0.7l0.3,0.4
	c0.3,0.4,0.5,0.7,0.9,0.9c0.4,0.2,0.8,0.2,1.4,0.2h1.1c0.7,0,1.7,0,2.3-0.7s0.7-1.6,0.7-2v-1.1c0-0.4,0-1.3-0.7-2s-1.7-0.7-2.3-0.7
	h-1.8c-0.2,0-0.4,0-0.6,0.2C29.8,20.1,29.8,20.4,29.8,20.5 M26.7,21.9l-3.2,4.2h2.6l3.1-4.2C29.3,21.9,26.7,21.9,26.7,21.9z
	 M16.4,22.7V23h1.1v5.3h2.1V23h2c0.2,0,0.5,0,0.6,0.2c0.1,0.2,0,0.5-0.2,0.6l-1.7,2.3H23l1.1-1.4c0.2-0.2,0.3-0.4,0.3-0.7
	s-0.1-0.4-0.3-0.7L23.8,23c-0.3-0.4-0.5-0.7-0.9-0.9c-0.4-0.2-0.8-0.2-1.4-0.2h-4.4c-0.2,0-0.4,0-0.6,0.2S16.4,22.5,16.4,22.7z
	 M35.2,36H16.6c-1.5,0-2.7-1.2-2.7-2.7V14.7c0-1.5,1.2-2.7,2.7-2.7h18.6c1.5,0,2.7,1.2,2.7,2.7v18.6C37.9,34.8,36.7,36,35.2,36z"/>
<g>
	<path d="M48.2,20.7H51c0.5,0,1,0.1,1.3,0.5c0.3,0.3,0.5,0.7,0.5,1.2c0,0.2,0,0.5-0.1,0.6s-0.2,0.3-0.3,0.4
		c-0.1,0.1-0.2,0.2-0.3,0.2s-0.2,0.1-0.3,0.1v0.1c0.1,0,0.2,0,0.4,0.1s0.3,0.1,0.4,0.3s0.2,0.3,0.3,0.5c0.1,0.2,0.1,0.4,0.1,0.7
		s0,0.5-0.1,0.8c-0.1,0.2-0.2,0.4-0.3,0.6c-0.2,0.2-0.3,0.3-0.5,0.4c-0.2,0.1-0.4,0.1-0.7,0.1h-3C48.3,27.3,48.3,20.7,48.2,20.7z
		 M49,23.6h1.8c0.3,0,0.6-0.1,0.7-0.2c0.1-0.1,0.3-0.4,0.3-0.7v-0.3c0-0.3-0.1-0.5-0.3-0.7c-0.2-0.2-0.4-0.2-0.7-0.2H49V23.6
		L49,23.6z M49,26.6h2c0.3,0,0.6-0.1,0.8-0.3c0.2-0.2,0.3-0.4,0.3-0.8v-0.3c0-0.3-0.1-0.6-0.3-0.8c-0.2-0.2-0.5-0.3-0.8-0.3h-2V26.6
		L49,26.6z"/>
	<path d="M54.4,27.3v-6.6h4v0.7h-3.2v2.2h3v0.7h-3v2.3h3.2v0.7L54.4,27.3L54.4,27.3z"/>
	<path d="M59.9,20.7h4v0.7h-3.2v1.9h2c0.6,0,1,0.2,1.4,0.5c0.3,0.3,0.5,0.8,0.5,1.5s-0.2,1.1-0.5,1.5c-0.3,0.4-0.8,0.5-1.4,0.5h-2.8
		C59.9,27.3,59.9,20.7,59.9,20.7z M62.6,26.6c0.3,0,0.6-0.1,0.7-0.2s0.3-0.4,0.3-0.8v-0.5c0-0.3-0.1-0.6-0.3-0.8s-0.4-0.2-0.7-0.2
		h-2v2.5H62.6L62.6,26.6z"/>
	<path d="M65.6,24.8V24H68v0.8H65.6z"/>
	<path d="M69.6,20.7h4.8v6.6h-0.8v-5.9h-3.2v5.9h-0.8C69.6,27.3,69.6,20.7,69.6,20.7z"/>
	<path d="M76.1,27.3v-6.6h2.6c0.6,0,1,0.2,1.4,0.5c0.3,0.3,0.5,0.8,0.5,1.4s-0.2,1-0.5,1.4c-0.3,0.3-0.8,0.5-1.4,0.5h-1.8v2.8
		C76.9,27.3,76.1,27.3,76.1,27.3z M76.9,23.8h1.8c0.3,0,0.6-0.1,0.7-0.2c0.2-0.2,0.3-0.4,0.3-0.7v-0.5c0-0.3-0.1-0.5-0.3-0.7
		s-0.4-0.2-0.7-0.2h-1.8C76.9,21.4,76.9,23.8,76.9,23.8z"/>
	<path d="M81.8,20.7h0.8v4.1l-0.1,1.4l0,0l0.7-1.2l2.8-4.3h0.7v6.6h-0.8v-4.1l0.1-1.3l0,0L85.3,23l-2.8,4.3h-0.7V20.7L81.8,20.7z"/>
	<path d="M87.7,26.6h0.7c0.1-0.1,0.3-0.3,0.4-0.5s0.2-0.5,0.3-0.8s0.1-0.7,0.2-1.1c0-0.5,0.1-1,0.1-1.6v-1.8h3.9v6.6h-0.8v-5.9h-2.4
		v1.2c0,0.7,0,1.3-0.1,1.7c-0.1,0.4-0.1,0.9-0.2,1.2c-0.1,0.3-0.2,0.6-0.3,0.8s-0.2,0.4-0.4,0.5c-0.1,0.1-0.3,0.2-0.4,0.3
		c-0.2,0.1-0.4,0.1-0.6,0.1h-0.3L87.7,26.6L87.7,26.6z"/>
	<path d="M97.3,27.4c-0.4,0-0.8-0.1-1.2-0.2c-0.3-0.1-0.6-0.4-0.9-0.6c-0.2-0.3-0.4-0.6-0.6-1.1c-0.2-0.5-0.2-0.9-0.2-1.5
		s0.1-1,0.2-1.5c0.1-0.4,0.3-0.8,0.6-1.1s0.5-0.5,0.9-0.6c0.3-0.1,0.7-0.2,1.2-0.2c0.5,0,0.8,0.1,1.2,0.2c0.4,0.1,0.6,0.4,0.9,0.6
		c0.2,0.3,0.4,0.6,0.6,1.1s0.2,0.9,0.2,1.5s-0.1,1-0.2,1.5c-0.1,0.4-0.3,0.8-0.6,1.1c-0.2,0.3-0.5,0.5-0.9,0.6
		C98.2,27.3,97.8,27.4,97.3,27.4z M97.3,26.7c0.3,0,0.5,0,0.8-0.1s0.4-0.2,0.6-0.4c0.2-0.2,0.3-0.4,0.4-0.7c0.1-0.3,0.1-0.6,0.1-0.9
		v-1.1c0-0.3-0.1-0.6-0.1-0.9c-0.1-0.3-0.2-0.5-0.4-0.7c-0.2-0.2-0.4-0.3-0.6-0.4s-0.5-0.1-0.8-0.1s-0.5,0-0.8,0.1
		c-0.3,0.1-0.4,0.2-0.6,0.4c-0.2,0.2-0.3,0.4-0.4,0.7c-0.1,0.3-0.1,0.6-0.1,0.9v1.1c0,0.3,0.1,0.6,0.1,0.9c0.1,0.3,0.2,0.5,0.4,0.7
		c0.2,0.2,0.4,0.3,0.6,0.4C96.8,26.6,97.1,26.7,97.3,26.7z"/>
	<path d="M100.8,26.6h0.6l1-2c0.1-0.2,0.2-0.4,0.3-0.5s0.2-0.1,0.4-0.2l0,0c-0.1,0-0.2-0.1-0.3-0.2s-0.2-0.2-0.3-0.4l-0.9-1.9H101
		v-0.7h0.5c0.2,0,0.4,0,0.5,0.1s0.3,0.3,0.4,0.5l1,2.2h1.2v-2.9h0.8v2.9h1.2l1.1-2.2c0.1-0.2,0.2-0.4,0.4-0.5
		c0.2-0.1,0.3-0.1,0.5-0.1h0.5v0.7h-0.6l-0.9,1.9c-0.1,0.2-0.2,0.3-0.3,0.4c-0.1,0.1-0.2,0.2-0.3,0.2l0,0c0.1,0,0.3,0.1,0.4,0.2
		c0.1,0.1,0.2,0.2,0.3,0.5l1,2h0.6v0.7h-0.6c-0.2,0-0.3,0-0.5-0.1c-0.2-0.1-0.3-0.3-0.4-0.5l-1.2-2.3h-1.2v3h-0.8v-3h-1.2l-1.2,2.3
		c-0.1,0.3-0.3,0.4-0.4,0.5s-0.3,0.1-0.5,0.1h-0.6C100.8,27.3,100.8,26.6,100.8,26.6z"/>
	<path d="M110.5,27.3v-6.6h4v0.7h-3.2v2.2h3v0.7h-3v2.3h3.2v0.7L110.5,27.3L110.5,27.3z"/>
	<path d="M120.1,24.3h-3.3v3H116v-6.6h0.8v2.9h3.3v-2.9h0.8v6.6h-0.8C120.1,27.3,120.1,24.3,120.1,24.3z"/>
	<path d="M122.6,20.7h0.8v4.1l-0.1,1.4l0,0L124,25l2.8-4.3h0.7v6.6h-0.8v-4.1l0.1-1.3l0,0l-0.7,1.2l-2.8,4.3h-0.7V20.7L122.6,20.7z"
		/>
	<path d="M129.3,27.3v-6.6h4v0.7h-3.2v2.2h3v0.7h-3v2.3h3.2v0.7L129.3,27.3L129.3,27.3z"/>
</g>
</svg>
